<?xml version="1.0" encoding="UTF-8"?>
<svg version="1.1" xmlns="http://www.w3.org/2000/svg" width="351" height="400">
<path d="M0 0 C10.02456891 8.45955182 16.30914654 18.33966292 18.6875 31.3125 C18.8182942 33.6758159 18.78623396 35.94288504 18.6875 38.3125 C19.57888672 38.35117187 19.57888672 38.35117187 20.48828125 38.390625 C34.09631537 39.3218124 43.90676465 44.87174816 53.20703125 54.59765625 C56.42743532 58.32788683 57.98256353 61.45112739 57.6875 66.375 C56.96217966 70.58185799 55.05050927 72.67013557 51.6875 75.3125 C47.84947816 76.59184061 44.2355037 76.45716535 40.2361145 76.45294189 C39.36319885 76.45591302 38.4902832 76.45888414 37.59091556 76.4619453 C34.65451352 76.47064394 31.7181522 76.47214152 28.78173828 76.47363281 C26.6810599 76.47826011 24.58038236 76.48328465 22.47970581 76.48867798 C16.76485428 76.50181133 11.05001451 76.50824861 5.33515024 76.51268864 C1.76696902 76.51561748 -1.80120898 76.5197219 -5.36938858 76.52419281 C-16.52704856 76.53786939 -27.68470118 76.54753561 -38.84236896 76.5513947 C-51.73437069 76.55587784 -64.62626652 76.57343697 -77.51823604 76.6023953 C-87.47583163 76.62398823 -97.43339737 76.63409768 -107.39101613 76.63543582 C-113.34192479 76.63648544 -119.29273393 76.64242674 -125.24361801 76.66025543 C-130.83977605 76.6766951 -136.4357593 76.67891159 -142.03193283 76.67011642 C-144.08746304 76.66934388 -146.1430025 76.67371722 -148.19850922 76.68357468 C-151.00159851 76.69623045 -153.80406277 76.69045211 -156.60714722 76.67999268 C-157.42319959 76.68804908 -158.23925195 76.69610548 -159.08003318 76.70440602 C-163.68220968 76.66415978 -166.63839389 76.14163164 -170.3125 73.3125 C-173.27517255 70.24401771 -174.14233174 67.56670653 -174.3125 63.3125 C-172.23914823 57.09244468 -167.85562379 53.44267766 -162.3828125 50.15234375 C-151.17001407 44.58825698 -138.5990215 43.80135042 -126.3125 44.3125 C-126.12880859 42.92417969 -126.12880859 42.92417969 -125.94140625 41.5078125 C-125.13858399 37.42887704 -123.3719686 34.99997366 -120.3125 32.3125 C-113.64033773 27.86439182 -106.00857988 26.27710111 -98.0859375 26.1015625 C-88.05489701 26.24262891 -88.05489701 26.24262891 -79.640625 21.76171875 C-77.96429516 18.6743498 -76.64266033 15.56075985 -75.3125 12.3125 C-60.04985927 -8.20018913 -20.88994433 -14.39441462 0 0 Z M-66.3125 10.3125 C-66.91578125 10.81265625 -67.5190625 11.3128125 -68.140625 11.828125 C-73.58528393 16.70464561 -76.35538494 22.71585872 -79.3125 29.3125 C-80.43785156 29.34988281 -81.56320313 29.38726562 -82.72265625 29.42578125 C-103.06162071 29.6910338 -103.06162071 29.6910338 -120.125 39.1875 C-121.61154661 41.84763604 -121.86773607 44.31748416 -122.3125 47.3125 C-122.8701001 47.35213867 -123.4277002 47.39177734 -124.00219727 47.43261719 C-147.23340354 48.70630734 -147.23340354 48.70630734 -167.3125 59.3125 C-169.67389302 62.20711901 -169.67389302 62.20711901 -169.125 65.875 C-168.66410238 69.57075752 -168.66410238 69.57075752 -165.3125 71.3125 C-162.46091358 71.51077221 -159.70665881 71.59068311 -156.85438538 71.57992554 C-155.54395355 71.58672221 -155.54395355 71.58672221 -154.20704836 71.59365618 C-151.26826878 71.60635596 -148.32967319 71.60467623 -145.39086914 71.60302734 C-143.28856669 71.60900907 -141.18626645 71.61581378 -139.08396912 71.62338257 C-133.36504062 71.64108487 -127.64617192 71.6457397 -121.92721868 71.64701414 C-117.1580938 71.64891051 -112.38898294 71.65626493 -107.61986345 71.66335833 C-96.37164982 71.67965556 -85.12346822 71.68452602 -73.87524414 71.68310547 C-62.25939025 71.68190332 -50.64372196 71.70301684 -39.02791506 71.7345928 C-29.06523291 71.76071315 -19.10261153 71.77147457 -9.13989538 71.77019465 C-3.18508126 71.76968382 2.76956796 71.77543397 8.72434807 71.79655075 C14.3230163 71.81586203 19.92136112 71.8161064 25.52004051 71.80151749 C27.57760335 71.79941951 29.63518606 71.8041887 31.69271469 71.8162384 C34.49632833 71.83159711 37.29881367 71.82244518 40.10240173 71.80697632 C40.92136694 71.81726344 41.74033215 71.82755057 42.58411449 71.83814943 C46.16205808 71.7943626 48.27464632 71.6124743 51.20844364 69.48081398 C52.95357818 67.30839639 52.95357818 67.30839639 52.9375 64.125 C51.61544557 57.97744692 46.41308113 53.25453664 41.47265625 49.734375 C33.26756702 44.94687126 25.11706346 42.88339215 15.6875 42.3125 C15.52894531 41.29671875 15.37039063 40.2809375 15.20703125 39.234375 C13.07337049 26.32375911 10.17995647 14.08516642 -0.3125 5.3125 C-19.82850126 -7.36199803 -48.87412951 -5.27400814 -66.3125 10.3125 Z " fill="#aeb8de" transform="translate(272.3125,302.6875)"/>
<path d="M0 0 C6.78069177 5.11159841 11.24186061 11.82691687 14.28515625 19.72265625 C14.28515625 20.71265625 14.28515625 21.70265625 14.28515625 22.72265625 C15.15914062 22.74392578 15.15914062 22.74392578 16.05078125 22.765625 C25.84001495 23.33512444 35.34849214 26.60344834 42.28515625 33.72265625 C44.79974138 37.93699578 45.12378078 41.92339905 44.28515625 46.72265625 C42.57147016 49.79327593 40.47614173 52.12716351 37.28515625 53.72265625 C35.37654732 53.82066429 33.46446601 53.85336129 31.55334473 53.85636902 C30.33343338 53.860634 29.11352203 53.86489899 27.85664368 53.86929321 C26.49752804 53.86894367 25.13841244 53.86848213 23.77929688 53.86791992 C22.35369274 53.87091073 20.92808943 53.87431308 19.50248718 53.87809753 C15.62449152 53.88694866 11.7465179 53.88927608 7.86851311 53.88991332 C4.63518683 53.8908614 1.40186572 53.89453844 -1.83145857 53.89808542 C-9.45648935 53.90623384 -17.08150833 53.90866926 -24.70654297 53.90795898 C-32.58297773 53.90735775 -40.4593441 53.91791781 -48.33576155 53.93370265 C-55.08992064 53.94675811 -61.84405731 53.95214374 -68.59822893 53.95150357 C-72.63587884 53.95124804 -76.67346796 53.95412958 -80.71110535 53.96468163 C-84.50644392 53.97432941 -88.30166318 53.97446479 -92.09700584 53.96716499 C-93.49264385 53.96611507 -94.88828915 53.96850605 -96.28391457 53.97452545 C-98.18360562 53.98219049 -100.08333694 53.97642624 -101.98303223 53.96989441 C-103.58029018 53.97071156 -103.58029018 53.97071156 -105.20981598 53.97154522 C-107.71484375 53.72265625 -107.71484375 53.72265625 -109.71484375 51.72265625 C-110.56184707 47.38176424 -109.44808564 44.87263557 -107.15234375 41.28515625 C-100.91217868 32.67054322 -95.0597964 27.91586868 -84.71484375 24.72265625 C-83.52503906 24.62726563 -82.33523437 24.531875 -81.109375 24.43359375 C-77.571229 24.02669693 -77.571229 24.02669693 -75.4140625 21.31640625 C-74.75019531 20.29546875 -74.08632812 19.27453125 -73.40234375 18.22265625 C-64.72727039 5.64426881 -53.3105373 -2.73423085 -38.5 -6.5859375 C-24.94087316 -9.06268203 -11.73755047 -7.57081306 0 0 Z M-45.71484375 0.72265625 C-46.57851562 1.09003906 -47.4421875 1.45742187 -48.33203125 1.8359375 C-59.0417353 6.97841579 -68.25471484 16.19240764 -73.71484375 26.72265625 C-73.71484375 27.38265625 -73.71484375 28.04265625 -73.71484375 28.72265625 C-74.46507813 28.73683594 -75.2153125 28.75101562 -75.98828125 28.765625 C-85.65509978 29.21609387 -92.98889463 31.38333524 -99.65234375 38.66015625 C-102.21211806 41.84176253 -104.12010805 44.97033695 -105.71484375 48.72265625 C-103.9924224 50.4450776 -101.70144301 49.85995768 -99.35125732 49.86982727 C-98.18754105 49.87698257 -97.02382477 49.88413788 -95.82484436 49.89151001 C-93.89239113 49.89554337 -93.89239113 49.89554337 -91.92089844 49.8996582 C-90.55942103 49.90592017 -89.19794535 49.91256673 -87.83647156 49.91957092 C-84.12764162 49.93700789 -80.4188246 49.94754042 -76.7099638 49.95577645 C-74.39376029 49.96092186 -72.07756083 49.96699785 -69.76136017 49.97328758 C-62.51744724 49.99234886 -55.27354455 50.00657688 -48.02961135 50.01489955 C-39.66257698 50.02467056 -31.29580726 50.05098236 -22.92886615 50.09140044 C-16.46597401 50.12155086 -10.00315776 50.13636747 -3.54019666 50.13968056 C0.3216008 50.14203271 4.18311583 50.15101361 8.04483795 50.17614174 C11.67939998 50.19940839 15.31349341 50.20366171 18.94811058 50.19338036 C20.91646201 50.19264822 22.88478957 50.21175047 24.8530426 50.23144531 C26.02803818 50.2245015 27.20303375 50.21755768 28.41363525 50.21040344 C29.43276127 50.2127918 30.45188728 50.21518015 31.5018959 50.21764088 C35.04439672 49.5876303 36.72237602 48.19944311 39.28515625 45.72265625 C40.52403771 42.70288269 40.51073231 41.35104669 39.41015625 38.28515625 C32.36796892 29.79310682 23.40671831 27.89334983 12.97265625 26.87109375 C12.41578125 26.82210937 11.85890625 26.773125 11.28515625 26.72265625 C11.06601563 26.02140625 10.846875 25.32015625 10.62109375 24.59765625 C7.15047863 14.21402726 1.7507656 5.94748263 -7.9375 0.46484375 C-18.99389361 -4.42252653 -34.70749532 -4.28242727 -45.71484375 0.72265625 Z " fill="#aeb8de" transform="translate(131.71484375,230.27734375)"/>
<path d="M0 0 C4.18194285 2.85249805 6.14809134 5.57247119 8.3125 10.125 C8.82425781 11.17945313 9.33601563 12.23390625 9.86328125 13.3203125 C11 16 11 16 11 18 C12.03125 18.0825 13.0625 18.165 14.125 18.25 C20.07270041 19.40116782 23.47646719 21.88653672 26.875 26.8125 C29.08544506 30.62730035 29.71057576 33.55890148 29 38 C25.36426563 40.42382292 22.67398537 40.29580633 18.47094727 40.29052734 C17.32412979 40.30060318 17.32412979 40.30060318 16.15414429 40.31088257 C13.62483232 40.32989269 11.09578523 40.33378813 8.56640625 40.3359375 C6.80907583 40.34236291 5.05174649 40.34909107 3.29441833 40.35610962 C-0.39009075 40.36808961 -4.07450601 40.37178966 -7.7590332 40.37060547 C-12.48158595 40.37040214 -17.20353787 40.39771534 -21.92594814 40.43214989 C-25.55563626 40.45438022 -29.18517883 40.45844422 -32.81492805 40.45738602 C-34.55607234 40.45974739 -36.29722031 40.46860103 -38.03829765 40.48405075 C-40.47314505 40.50363495 -42.90668454 40.49790363 -45.34155273 40.48583984 C-46.06116684 40.49707886 -46.78078094 40.50831787 -47.52220154 40.51989746 C-50.9247024 40.47703171 -52.71889885 40.21065817 -55.4747467 38.14541626 C-57 36 -57 36 -57.0625 33.1875 C-55.22632685 27.67898054 -52.48434083 23.62054423 -47.4375 20.625 C-44 19 -44 19 -41.984375 18.71875 C-38.9814381 17.63107207 -38.32899787 15.62341837 -36.8125 12.875 C-32.29295967 5.43900416 -26.35801734 0.10943721 -17.96484375 -2.56640625 C-11.55404585 -3.98111513 -5.79481946 -3.09982359 0 0 Z M-31.30078125 12.74609375 C-34.83136701 17.42307685 -34.83136701 17.42307685 -36 23 C-37.794375 23.0928125 -37.794375 23.0928125 -39.625 23.1875 C-44.50495253 23.81047266 -46.65125297 25.41205675 -50 29 C-50.66 30.98 -51.32 32.96 -52 35 C-26.59 35 -1.18 35 25 35 C21.91421782 27.53879152 21.91421782 27.53879152 16 23 C12.9965689 22.33747843 10.07117359 22.07507313 7 22 C6.85304688 21.12988281 6.85304688 21.12988281 6.703125 20.2421875 C5.23970198 12.59706379 2.5521876 7.53612988 -4 3 C-15.66941012 -0.88980337 -23.88604237 3.90376271 -31.30078125 12.74609375 Z " fill="#aeb8de" transform="translate(91,137)"/>
<path d="M0 0 C2.96517029 3.13923899 4.74467884 5.31242286 5.5546875 9.60546875 C4.83969628 12.67993101 4.48081942 13.48864463 1.9296875 15.29296875 C-1.31665039 15.64941406 -1.31665039 15.64941406 -5.29296875 15.62109375 C-5.994254 15.61922058 -6.69553925 15.61734741 -7.41807556 15.61541748 C-8.89831304 15.60870303 -10.37853296 15.59480039 -11.85864258 15.57421875 C-14.1279341 15.54303579 -16.39653098 15.53324426 -18.66601562 15.52734375 C-29.7428066 15.4567217 -29.7428066 15.4567217 -32.0703125 14.29296875 C-31.727071 11.20379527 -31.24837711 9.52190896 -29.3203125 7.04296875 C-27.0703125 5.29296875 -27.0703125 5.29296875 -24.4453125 4.79296875 C-23.6615625 4.62796875 -22.8778125 4.46296875 -22.0703125 4.29296875 C-21.36880098 2.97763465 -20.70505325 1.64179283 -20.0703125 0.29296875 C-13.68964844 -4.36319151 -6.3478588 -5.23398923 0 0 Z M-17.0703125 4.29296875 C-17.5653125 4.99421875 -18.0603125 5.69546875 -18.5703125 6.41796875 C-20.0703125 8.29296875 -20.0703125 8.29296875 -22.7578125 9.04296875 C-23.9025 9.16671875 -23.9025 9.16671875 -25.0703125 9.29296875 C-25.0703125 9.62296875 -25.0703125 9.95296875 -25.0703125 10.29296875 C-16.4903125 10.29296875 -7.9103125 10.29296875 0.9296875 10.29296875 C0.5996875 9.63296875 0.2696875 8.97296875 -0.0703125 8.29296875 C-0.7303125 8.29296875 -1.3903125 8.29296875 -2.0703125 8.29296875 C-2.3384375 7.50921875 -2.6065625 6.72546875 -2.8828125 5.91796875 C-3.91845682 3.01181952 -3.91845682 3.01181952 -7.0703125 1.29296875 C-11.31504982 0.73445068 -13.66066785 1.78059901 -17.0703125 4.29296875 Z " fill="#aeb8de" transform="translate(82.0703125,24.70703125)"/>
<path d="M0 0 C3.03047983 1.59788937 5.14450477 3.10885913 7.5 5.5625 C9.09937557 7.24093535 9.09937557 7.24093535 12.0625 8.5 C15 10 15 10 17 13 C16.625 15.6875 16.625 15.6875 16 18 C11.3552879 18.0988803 6.71118827 18.1714715 2.06567383 18.21972656 C0.48548715 18.23984186 -1.09462509 18.26713804 -2.67456055 18.30175781 C-4.94598748 18.35028343 -7.21643058 18.37296809 -9.48828125 18.390625 C-10.19463211 18.41127014 -10.90098297 18.43191528 -11.6287384 18.45318604 C-14.89170086 18.45467866 -16.5546393 18.4213645 -18.97558594 16.13085938 C-20 14 -20 14 -19.90234375 11.515625 C-18.87427367 8.64949023 -17.6160319 6.98711168 -15.5625 4.75 C-14.94503906 4.06421875 -14.32757813 3.3784375 -13.69140625 2.671875 C-9.87895073 -1.09655679 -5.06027127 -0.57520749 0 0 Z M-12 8 C-12 8.99 -12 9.98 -12 11 C-12.99 11.33 -13.98 11.66 -15 12 C-15 12.33 -15 12.66 -15 13 C-6.75 13 1.5 13 10 13 C8.68 12.34 7.36 11.68 6 11 C4.33333333 9.33333333 2.66666667 7.66666667 1 6 C-4.22548729 2.67468991 -7.70480067 3.82411176 -12 8 Z " fill="#aeb8de" transform="translate(106,65)"/>
</svg>
