<?xml version="1.0" encoding="UTF-8"?>
<svg version="1.1" xmlns="http://www.w3.org/2000/svg" width="400" height="365">
<path d="M0 0 C1.32 0.66 2.64 1.32 4 2 C4 18.5 4 35 4 52 C7.96 52.33 11.92 52.66 16 53 C37.41157235 56.99996407 56.67981161 69.12108027 69.625 86.6875 C83.04303183 106.83011391 88.06393613 129.86555891 83.9375 153.6875 C79.14883605 174.52830507 66.82053888 194.01724622 49.0625 206.125 C27.58426965 219.27493695 4.85367231 223.97070067 -19.95751953 218.50488281 C-33.53391554 215.14891975 -45.57402999 208.17146305 -56 199 C-56.76183594 198.33355469 -57.52367187 197.66710937 -58.30859375 196.98046875 C-73.15175722 183.11484464 -82.42738301 162.93440528 -83.38671875 142.71875 C-84.00997352 118.95565108 -78.09635511 96.83594545 -61.77734375 78.7421875 C-46.10219539 63.37709701 -25.4004508 52 -3 52 C-3.00999275 51.06705612 -3.00999275 51.06705612 -3.02018738 50.11526489 C-3.0864033 43.65941522 -3.1317432 37.20366152 -3.16479492 30.74755859 C-3.17990945 28.33606043 -3.20040153 25.92458986 -3.22631836 23.51318359 C-3.26258425 20.05299072 -3.27969956 16.59316029 -3.29296875 13.1328125 C-3.30845261 12.04944611 -3.32393646 10.96607971 -3.33988953 9.84988403 C-3.34011612 8.8489975 -3.34034271 7.84811096 -3.34057617 6.81689453 C-3.35056892 5.49118942 -3.35056892 5.49118942 -3.36076355 4.13870239 C-3.24171158 3.4329306 -3.12265961 2.72715881 -3 2 C-2.01 1.34 -1.02 0.68 0 0 Z M0 59 C-3.88794438 66.2416674 -7 72.62598812 -7 81 C-1.72 81 3.56 81 9 81 C7.80870736 74.05079292 6.38199388 67.25849402 3 61 C2.01 60.34 1.02 59.68 0 59 Z M-15.3125 63.75 C-16.07175781 64.26046875 -16.83101562 64.7709375 -17.61328125 65.296875 C-22.74518477 68.95892072 -26.32400958 72.424189 -29.8125 77.625 C-30.21919922 78.21023437 -30.62589844 78.79546875 -31.04492188 79.3984375 C-33.28709045 82.4247517 -33.28709045 82.4247517 -34 86 C-30.86633232 85.50229458 -27.74634162 84.94455515 -24.625 84.375 C-23.73554688 84.23449219 -22.84609375 84.09398438 -21.9296875 83.94921875 C-19.47633419 83.4845685 -17.29202795 82.99269238 -15 82 C-13.33757547 79.34954477 -13.33757547 79.34954477 -13 76 C-12.65672014 74.70727942 -12.29927336 73.41825945 -11.9296875 72.1328125 C-11.57619203 70.79738517 -11.22464984 69.46143937 -10.875 68.125 C-10.69324219 67.43664062 -10.51148438 66.74828125 -10.32421875 66.0390625 C-9.88108774 64.3598292 -9.44029956 62.67997794 -9 61 C-11.77780876 61 -13.02594991 62.1974517 -15.3125 63.75 Z M11 61 C11.64548853 63.75008135 12.29137766 66.50006756 12.9375 69.25 C13.11990234 70.02730469 13.30230469 70.80460937 13.49023438 71.60546875 C13.75610352 72.73662109 13.75610352 72.73662109 14.02734375 73.890625 C14.18968506 74.58188477 14.35202637 75.27314453 14.51928711 75.98535156 C14.99850025 77.99371462 15.49922605 79.99690419 16 82 C22.6 83.32 29.2 84.64 36 86 C30.22405625 74.4481125 23.30030465 65.58926768 11 61 Z M-54 81 C-60.38795754 87.80767911 -66.09051052 95.48387431 -70 104 C-69.67 104.66 -69.34 105.32 -69 106 C-68.34257812 105.36384766 -68.34257812 105.36384766 -67.671875 104.71484375 C-61.21761247 98.74596275 -53.91834978 94.08803561 -45.81640625 90.6484375 C-42.35752742 88.62396196 -41.61422823 87.02557036 -40.0625 83.375 C-37.72448179 78.28564637 -35.0772633 74.14750088 -31.515625 69.83984375 C-29.83829389 67.86674768 -29.83829389 67.86674768 -28 65 C-36.72922473 65 -48.16573414 75.44143878 -54 81 Z M30 65 C30.78375 65.969375 31.5675 66.93875 32.375 67.9375 C34.61660425 70.84482431 36.44181127 73.77090524 38.09765625 77.03515625 C43.12932746 86.76751022 47.34468123 91.90494024 57.4140625 96.3515625 C62.21042733 98.55642738 66.03322894 101.55998173 70 105 C70.495 104.01 70.495 104.01 71 103 C67.16219328 94.51925227 61.52832114 87.53940488 55 81 C54.31292969 80.30132812 53.62585938 79.60265625 52.91796875 78.8828125 C47.80579553 74.00775307 37.48912922 65 30 65 Z M-9 88 C-9.33 90.5575 -9.66 93.115 -10 95.75 C-10.10441406 96.52827148 -10.20882812 97.30654297 -10.31640625 98.10839844 C-11.10856517 104.54940488 -11 110.35001251 -11 117 C-3.08 117 4.84 117 13 117 C13.05805321 110.06070234 13.05805321 110.06070234 12.59765625 103.25390625 C12.51193359 102.47982422 12.42621094 101.70574219 12.33789062 100.90820312 C12.24701172 100.13412109 12.15613281 99.36003906 12.0625 98.5625 C11.97548828 97.76134766 11.88847656 96.96019531 11.79882812 96.13476562 C11.39271008 91.93596795 11.39271008 91.93596795 10 88 C3.73 88 -2.54 88 -9 88 Z M17 89 C17.99 98.24 18.98 107.48 20 117 C22.805 117.33 25.61 117.66 28.5 118 C29.36689453 118.10441406 30.23378906 118.20882812 31.12695312 118.31640625 C36.12067484 118.88685859 40.97407863 119.09221874 46 119 C45.10994141 105.71263154 45.10994141 105.71263154 39.3984375 94.22265625 C35.8835317 92.43085574 32.27774634 91.64536355 28.4375 90.8125 C27.66986328 90.63525391 26.90222656 90.45800781 26.11132812 90.27539062 C23.02000032 89.57734886 20.17855253 89 17 89 Z M-26.375 90.875 C-27.52742188 91.13603516 -27.52742188 91.13603516 -28.703125 91.40234375 C-30.81464929 91.89551984 -32.90687635 92.43440838 -35 93 C-35.78246094 93.20625 -36.56492187 93.4125 -37.37109375 93.625 C-40.22907795 96.03749505 -40.76499144 99.63667182 -41.6875 103.125 C-41.89955078 103.85976562 -42.11160156 104.59453125 -42.33007812 105.3515625 C-43.7166487 110.32047157 -44.34396993 114.75175943 -45 120 C-36.09 119.01 -27.18 118.02 -18 117 C-17.67 113.49375 -17.34 109.9875 -17 106.375 C-16.89558594 105.28106934 -16.79117188 104.18713867 -16.68359375 103.06005859 C-16.24878915 98.35743985 -15.87087672 93.72914007 -16 89 C-19.53315576 89 -22.94829357 90.07239933 -26.375 90.875 Z M-65.375 110.875 C-69.38209724 115.05465167 -73.03625765 119.47771848 -75 125 C-74.67 125.66 -74.34 126.32 -74 127 C-73.24976563 126.73445313 -72.49953125 126.46890625 -71.7265625 126.1953125 C-70.70304688 125.84210938 -69.67953125 125.48890625 -68.625 125.125 C-67.62726563 124.77695313 -66.62953125 124.42890625 -65.6015625 124.0703125 C-61.14620946 122.74627049 -56.55767083 121.91153417 -52 121 C-50.35 113.74 -48.7 106.48 -47 99 C-53.56604764 99 -60.92363982 106.59741665 -65.375 110.875 Z M49 99 C49.20496094 99.9178125 49.40992188 100.835625 49.62109375 101.78125 C49.89050781 103.0084375 50.15992188 104.235625 50.4375 105.5 C50.70433594 106.7065625 50.97117187 107.913125 51.24609375 109.15625 C52.02095899 113.10685826 52.54447385 117.00198409 53 121 C55.70776494 121.64829562 58.41616445 122.29370602 61.125 122.9375 C61.88554687 123.11990234 62.64609375 123.30230469 63.4296875 123.49023438 C67.60428434 124.47990173 71.75459839 125.35572979 76 126 C73.47456096 115.05643084 63.68372609 106.91053836 54.625 101.0625 C52.00378921 99.37270511 52.00378921 99.37270511 49 99 Z M-12 124 C-12 132.25 -12 140.5 -12 149 C-3.75 149 4.5 149 13 149 C13.185625 146.73125 13.37125 144.4625 13.5625 142.125 C13.66691406 140.84882813 13.77132812 139.57265625 13.87890625 138.2578125 C14.11825769 133.03209687 14.11825769 133.03209687 13 124 C4.75 124 -3.5 124 -12 124 Z M20 124 C20 132.25 20 140.5 20 149 C23.7125 148.690625 27.425 148.38125 31.25 148.0625 C32.4143457 147.96718994 33.57869141 147.87187988 34.77832031 147.77368164 C35.70225586 147.69496826 36.62619141 147.61625488 37.578125 147.53515625 C38.99206543 147.41732788 38.99206543 147.41732788 40.43457031 147.29711914 C42.70749522 147.03387689 44.80075595 146.61768892 47 146 C47.89169764 139.4288743 48.04173354 133.56292127 47 127 C45.22808941 125.22808941 42.62367341 125.63939662 40.21484375 125.46484375 C39.04501953 125.37783203 37.87519531 125.29082031 36.66992188 125.20117188 C34.82237305 125.0706543 34.82237305 125.0706543 32.9375 124.9375 C31.70193359 124.84662109 30.46636719 124.75574219 29.19335938 124.66210938 C26.12920286 124.43732569 23.0646362 124.21814618 20 124 Z M-34.1875 124.9375 C-35.21037109 125.02451172 -36.23324219 125.11152344 -37.28710938 125.20117188 C-38.25841797 125.28818359 -39.22972656 125.37519531 -40.23046875 125.46484375 C-41.12145264 125.543396 -42.01243652 125.62194824 -42.93041992 125.70288086 C-44.9869071 125.7870921 -44.9869071 125.7870921 -46 127 C-46.08651611 128.41570123 -46.10704904 129.835595 -46.09765625 131.25390625 C-46.09443359 132.10791016 -46.09121094 132.96191406 -46.08789062 133.84179688 C-46.07951172 134.73962891 -46.07113281 135.63746094 -46.0625 136.5625 C-46.05798828 137.46419922 -46.05347656 138.36589844 -46.04882812 139.29492188 C-46.03700225 141.53001314 -46.0205222 143.76497437 -46 146 C-37.00210801 147.53950644 -28.11250585 148.44772692 -19 149 C-19 140.75 -19 132.5 -19 124 C-24.09954292 124 -29.11129319 124.4813208 -34.1875 124.9375 Z M54 128 C54 133.61 54 139.22 54 145 C61.57877013 143.81889297 69.070443 142.4342249 76 139 C76.66 138.01 77.32 137.02 78 136 C73.72108434 132.88568218 70.04753233 131.15764379 64.875 129.75 C63.67617188 129.41484375 62.47734375 129.0796875 61.2421875 128.734375 C57.90385678 127.85272666 57.90385678 127.85272666 54 128 Z M-63.375 129.8125 C-64.365 130.0609668 -64.365 130.0609668 -65.375 130.31445312 C-69.32259209 131.35639725 -72.74064778 132.50200226 -76 135 C-76 135.99 -76 136.98 -76 138 C-68.34957822 141.49809862 -61.33401195 143.79376143 -53 145 C-53 139.39 -53 133.78 -53 128 C-56.64719579 128 -59.87865074 128.88441501 -63.375 129.8125 Z M-74 147 C-72.67283693 156.47262638 -64.15949957 163.34840873 -57 169 C-53.16906615 171.78704017 -53.16906615 171.78704017 -49 174 C-48.34 173.67 -47.68 173.34 -47 173 C-49.475 162.605 -49.475 162.605 -52 152 C-55.073125 151.175 -58.14625 150.35 -61.3125 149.5 C-62.27712158 149.23896484 -63.24174316 148.97792969 -64.2355957 148.70898438 C-64.99960693 148.50595703 -65.76361816 148.30292969 -66.55078125 148.09375 C-67.33106689 147.88427734 -68.11135254 147.67480469 -68.9152832 147.45898438 C-71.13253096 146.89249166 -71.13253096 146.89249166 -74 147 Z M65.6875 148.9296875 C61.50872823 150.14259371 57.24762255 151.05608388 53 152 C51.68 159.26 50.36 166.52 49 174 C60.23446716 168.38276642 68.66717019 162.06178366 75 151 C75.74055205 148.29726356 75.74055205 148.29726356 76 146 C72.64839517 146 68.85717863 147.92047379 65.6875 148.9296875 Z M-45 153 C-44.1884782 157.69071109 -43.31070472 162.35971756 -42.36621094 167.02539062 C-42.06768662 168.63503376 -41.8669201 170.26255294 -41.6953125 171.890625 C-41.23701334 174.64041998 -40.88230216 175.91520079 -39 178 C-31.65233387 181.38303914 -23.99133263 182.99585349 -16 184 C-16.09087891 182.72769531 -16.09087891 182.72769531 -16.18359375 181.4296875 C-16.26738281 180.25664062 -16.35117188 179.08359375 -16.4375 177.875 C-16.52902344 176.61042969 -16.62054688 175.34585938 -16.71484375 174.04296875 C-16.9071787 171.35875516 -17.08591752 168.67412462 -17.25390625 165.98828125 C-17.33511719 164.73402344 -17.41632813 163.47976562 -17.5 162.1875 C-17.5721875 161.02605469 -17.644375 159.86460937 -17.71875 158.66796875 C-17.7085448 156.08176195 -17.7085448 156.08176195 -19 155 C-20.9230873 154.7714679 -22.85360228 154.60481143 -24.78515625 154.46484375 C-25.95498047 154.37783203 -27.12480469 154.29082031 -28.33007812 154.20117188 C-30.17762695 154.0706543 -30.17762695 154.0706543 -32.0625 153.9375 C-33.29806641 153.84662109 -34.53363281 153.75574219 -35.80664062 153.66210938 C-38.87081994 153.43732402 -41.93524802 153.2168144 -45 153 Z M33 153.9375 C31.86820313 154.02451172 30.73640625 154.11152344 29.5703125 154.20117188 C27.95769531 154.33168945 27.95769531 154.33168945 26.3125 154.46484375 C24.82169922 154.58267212 24.82169922 154.58267212 23.30078125 154.70288086 C21.03964013 154.75678627 21.03964013 154.75678627 20 156 C19.77391943 157.31691466 19.60591897 158.64394468 19.46484375 159.97265625 C19.37783203 160.79056641 19.29082031 161.60847656 19.20117188 162.45117188 C19.11416016 163.31291016 19.02714844 164.17464844 18.9375 165.0625 C18.84662109 165.89716797 18.75574219 166.73183594 18.66210938 167.59179688 C18.12652995 172.75832621 17.90993771 177.80640816 18 183 C23.40539082 182.65996457 28.66135727 181.99516968 33.9375 180.75 C34.83339844 180.53859375 35.72929687 180.3271875 36.65234375 180.109375 C39.83700823 178.60447531 40.54135505 177.19348302 42 174 C42.81971968 171.32425949 43.54379751 168.71507197 44.1875 166 C44.36474609 165.30132812 44.54199219 164.60265625 44.72460938 163.8828125 C45.62701874 160.18955411 46.21544885 156.80378654 46 153 C41.67796176 153 37.30560419 153.59177666 33 153.9375 Z M-11 156 C-11.00532382 166.47178999 -11.00532382 166.47178999 -10 176.75 C-9.90460938 177.45898438 -9.80921875 178.16796875 -9.7109375 178.8984375 C-9.48100666 180.59992568 -9.24160584 182.30013034 -9 184 C-5.60231132 185.03158741 -2.47860037 185.13377596 1.0625 185.125 C2.62677734 185.12886719 2.62677734 185.12886719 4.22265625 185.1328125 C7.08680628 185.12137157 7.08680628 185.12137157 10 184 C12.25771989 174.66809112 12.5714042 165.57197278 13 156 C5.08 156 -2.84 156 -11 156 Z M-70 167 C-65.33057911 183.12635048 -51.02318503 196.15164197 -37.0078125 204.4765625 C-34.05393336 205.9726831 -31.16619388 207.04541617 -28 208 C-28.36351562 207.53851563 -28.72703125 207.07703125 -29.1015625 206.6015625 C-33.98112424 200.27064393 -38.23263785 193.6302574 -41.734375 186.4375 C-43.97553133 182.51997568 -47.1095314 180.88432365 -51.125 179.0625 C-57.11696275 176.13147413 -62.15200236 172.83656563 -67.2421875 168.46875 C-68.74612003 166.89313496 -68.74612003 166.89313496 -70 167 Z M66.125 170.5625 C60.76280247 175.30511588 54.15192856 179.66824933 47.30859375 181.86328125 C44.11358641 183.43645745 43.5799857 185.20238972 42.1875 188.4375 C39.18899031 194.9120888 35.36134546 200.37674241 31 206 C33.88487985 207.33418615 33.88487985 207.33418615 36.12890625 206.06640625 C42.47755073 202.14308663 48.33863972 197.86493163 54 193 C54.92425781 192.22076172 54.92425781 192.22076172 55.8671875 191.42578125 C61.89226405 185.9143633 69.73427987 176.22718086 71 168 C68.60696482 167.77820983 68.60696482 167.77820983 66.125 170.5625 Z M-34 187 C-30.71280852 196.06756683 -23.66427314 203.32121791 -16 209 C-12.68638416 210.53147541 -12.68638416 210.53147541 -10 211 C-10.65462856 207.66417999 -11.32531853 204.33181739 -12 201 C-12.16757813 200.14277344 -12.33515625 199.28554687 -12.5078125 198.40234375 C-12.67023438 197.60957031 -12.83265625 196.81679687 -13 196 C-13.144375 195.278125 -13.28875 194.55625 -13.4375 193.8125 C-13.91606861 191.77343377 -13.91606861 191.77343377 -16 190 C-17.92614038 189.44904331 -17.92614038 189.44904331 -20.1328125 189.1484375 C-21.34130859 188.95507812 -21.34130859 188.95507812 -22.57421875 188.7578125 C-23.41597656 188.63148438 -24.25773437 188.50515625 -25.125 188.375 C-25.97449219 188.2409375 -26.82398438 188.106875 -27.69921875 187.96875 C-29.79834644 187.63855014 -31.89903911 187.31832741 -34 187 Z M25.4375 188.375 C24.75236328 188.51421875 24.06722656 188.6534375 23.36132812 188.796875 C19.57416416 189.57316636 19.57416416 189.57316636 16 191 C15.21745485 193.58682849 14.54588571 196.12214385 13.9375 198.75 C13.76412109 199.46671875 13.59074219 200.1834375 13.41210938 200.921875 C12.52965633 204.60045322 11.70963324 208.28357027 11 212 C22.76690107 206.86535226 29.38040964 198.82221857 36 188 C32.16404885 186.72134962 29.27079924 187.54813886 25.4375 188.375 Z M-7 192 C-6.43782262 199.44885023 -4.34717368 206.30565264 -1 213 C0.93800308 212.97329801 0.93800308 212.97329801 3 212 C4.56381541 209.24915096 4.56381541 209.24915096 5.6875 205.875 C6.31205078 204.20050781 6.31205078 204.20050781 6.94921875 202.4921875 C8.25361203 198.47316877 8.25361203 198.47316877 9 192 C3.72 192 -1.56 192 -7 192 Z " fill="#aeb8de" transform="translate(241,32)"/>
<path d="M0 0 C4.65189294 1.70569408 4.9913863 3.0356214 7.125 7.375 C8.00592718 9.37239638 8.88233743 11.37180588 9.75 13.375 C10.245 13.87 10.245 13.87 10.75 14.375 C13.53390592 14.3659319 16.30495041 14.24192835 19.0859375 14.1171875 C21.75 14.375 21.75 14.375 23.57421875 15.7265625 C24.75 17.375 24.75 17.375 25.1875 19.875 C24.75 22.375 24.75 22.375 22.9375 24.125 C18.71304882 26.5389721 14.52709928 26.91597669 9.75 26.375 C8.40445203 25.73334364 7.06918431 25.06924417 5.75 24.375 C5.7406543 25.61588379 5.73130859 26.85676758 5.72167969 28.13525391 C5.68170717 32.75377866 5.61592793 37.37164238 5.54248047 41.98974609 C5.51431297 43.98575325 5.49307748 45.98187106 5.47900391 47.97802734 C5.45751597 50.85311364 5.41083574 53.72687529 5.359375 56.6015625 C5.35753204 57.93315903 5.35753204 57.93315903 5.35565186 59.29165649 C5.22636496 64.80193286 4.4127988 68.00172273 0.75 72.375 C-3.81582808 76.49538144 -7.0386142 77.53393188 -13.125 77.625 C-14.15367188 77.65078125 -15.18234375 77.6765625 -16.2421875 77.703125 C-20.46771055 77.24215885 -23.07793319 75.58892633 -26 72.5625 C-27.63943245 69.69349321 -28.11999017 67.69025059 -28.25 64.375 C-27.10112872 60.60925526 -26.23297546 58.15777312 -23.12109375 55.6796875 C-19.50260149 54.03536585 -16.32421955 54.04244539 -12.4375 54.1875 C-11.39819336 54.20780273 -11.39819336 54.20780273 -10.33789062 54.22851562 C-8.64158735 54.26361155 -6.94568864 54.31741057 -5.25 54.375 C-5.25444122 53.72798126 -5.25888245 53.08096252 -5.26345825 52.41433716 C-5.30759925 45.69893597 -5.33782788 38.98357578 -5.35986328 32.26806641 C-5.36994011 29.75958585 -5.38360179 27.25111708 -5.40087891 24.74267578 C-5.42505337 21.14352512 -5.43646612 17.54452933 -5.4453125 13.9453125 C-5.45563507 12.81819855 -5.46595764 11.69108459 -5.47659302 10.52981567 C-5.47674408 9.48888763 -5.47689514 8.44795959 -5.47705078 7.37548828 C-5.481492 6.45615509 -5.48593323 5.5368219 -5.49050903 4.58963013 C-5.07671802 0.77940299 -3.64257871 0.42029754 0 0 Z " fill="#aeb8de" transform="translate(53.25,256.625)"/>
<path d="M0 0 C2.8125 -0.3125 2.8125 -0.3125 6 0 C8.41709089 2.84871426 8.98840491 4.9252761 9.5625 8.625 C10.59872713 12.13145135 10.59872713 12.13145135 13.2421875 12.97265625 C15.00991226 13.4414876 16.79411946 13.85276826 18.58984375 14.19921875 C21 15 21 15 22.94140625 16.76953125 C24 19 24 19 23.48828125 21.6484375 C21.62284627 24.5959227 20.51467097 24.79694846 17.1875 25.625 C13.68712923 26.83394308 12.31447296 27.51766647 10.265625 30.66015625 C9.05899698 33.41055835 8.00526213 36.17123912 7 39 C6 40 6 40 3.625 40.375 C1 40 1 40 -0.625 37.9375 C-2 35 -2 35 -3.0625 31.4375 C-5.57634426 26.97745373 -7.99624953 26.35804531 -12.72265625 24.82421875 C-15 24 -15 24 -17 22 C-17.1875 19.125 -17.1875 19.125 -16 16 C-12.23797258 13.55654457 -8.49863875 12 -4 12 C-3.896875 11.13375 -3.79375 10.2675 -3.6875 9.375 C-2.96601586 5.83316877 -1.72876739 3.15687958 0 0 Z " fill="#aeb8de" transform="translate(122,45)"/>
<path d="M0 0 C3.69848112 1.49700426 4.35485223 3.81461825 5.92578125 7.34765625 C6.15652344 7.91355469 6.38726562 8.47945312 6.625 9.0625 C8.543125 9.000625 8.543125 9.000625 10.5 8.9375 C12.6796875 8.8671875 12.6796875 8.8671875 14.625 9.0625 C15.285 9.7225 15.945 10.3825 16.625 11.0625 C16.5625 13.5625 16.5625 13.5625 15.625 16.0625 C11.54082452 18.70520178 8.23913619 17.81161858 3.625 17.0625 C3.63547363 17.79364014 3.64594727 18.52478027 3.65673828 19.27807617 C3.69840289 22.60201559 3.72435956 25.92589995 3.75 29.25 C3.76675781 30.40048828 3.78351563 31.55097656 3.80078125 32.73632812 C3.80722656 33.84814453 3.81367188 34.95996094 3.8203125 36.10546875 C3.83078613 37.12664795 3.84125977 38.14782715 3.85205078 39.19995117 C3.52026939 43.38289393 2.41874267 46.14073432 -0.3125 49.3125 C-4.2059832 52.6160615 -8.49325049 52.44712269 -13.375 52.0625 C-16.03006542 51.22405829 -16.99305509 50.55357202 -18.6875 48.375 C-19.70422829 44.95509577 -19.24781149 42.49140226 -18.375 39.0625 C-14.375 36.0625 -14.375 36.0625 -4.375 36.0625 C-4.375 24.5125 -4.375 12.9625 -4.375 1.0625 C-2.375 0.0625 -2.375 0.0625 0 0 Z " fill="#aeb8de" transform="translate(133.375,231.9375)"/>
<path d="M0 0 C2.515625 0.86328125 2.515625 0.86328125 3.78125 3.0078125 C4.26851563 4.32845703 4.26851563 4.32845703 4.765625 5.67578125 C6.63382864 9.86726377 8.01499264 11.62329791 12.265625 13.42578125 C13.67891517 13.91481709 15.09481974 14.39652911 16.515625 14.86328125 C17.515625 15.86328125 17.515625 15.86328125 17.578125 18.42578125 C17.5575 19.23015625 17.536875 20.03453125 17.515625 20.86328125 C16.24870993 21.53736433 14.97691751 22.20228622 13.703125 22.86328125 C12.99542969 23.23453125 12.28773438 23.60578125 11.55859375 23.98828125 C9.515625 24.86328125 9.515625 24.86328125 6.515625 24.86328125 C6.35707031 25.56195313 6.19851563 26.260625 6.03515625 26.98046875 C4.10567646 34.50650595 4.10567646 34.50650595 0.828125 36.48828125 C0.065 36.61203125 -0.698125 36.73578125 -1.484375 36.86328125 C-4.56129557 34.09405274 -6.26237507 31.83478101 -7.484375 27.86328125 C-7.484375 26.87328125 -7.484375 25.88328125 -7.484375 24.86328125 C-8.37125 24.76015625 -9.258125 24.65703125 -10.171875 24.55078125 C-13.66277042 23.82625579 -15.76887764 23.17944076 -18.484375 20.86328125 C-18.796875 17.67578125 -18.796875 17.67578125 -18.484375 14.86328125 C-17.0281205 14.19208576 -15.56929633 13.52646318 -14.109375 12.86328125 C-13.29726563 12.49203125 -12.48515625 12.12078125 -11.6484375 11.73828125 C-9.484375 10.86328125 -9.484375 10.86328125 -7.484375 10.86328125 C-7.360625 10.14140625 -7.236875 9.41953125 -7.109375 8.67578125 C-6.4883737 5.88127541 -5.70620729 3.4506908 -4.484375 0.86328125 C-2.484375 -0.13671875 -2.484375 -0.13671875 0 0 Z " fill="#aeb8de" transform="translate(345.484375,76.13671875)"/>
<path d="M0 0 C3 1 3 1 4.6875 4.0625 C5.120625 5.031875 5.55375 6.00125 6 7 C7.65 7 9.3 7 11 7 C11.33 8.65 11.66 10.3 12 12 C6.375 14.125 6.375 14.125 3 13 C3.02618408 13.57967529 3.05236816 14.15935059 3.0793457 14.7565918 C3.18370612 17.39994875 3.24844327 20.04287199 3.3125 22.6875 C3.35439453 23.59951172 3.39628906 24.51152344 3.43945312 25.45117188 C3.52338673 30.06752013 3.52085694 32.28303458 0.73828125 36.11328125 C-3.34812018 38.92887596 -5.13670689 38.62752169 -10 38 C-12 36.875 -12 36.875 -13 35 C-13.38976435 31.88188517 -13.50422245 29.88980433 -11.9375 27.125 C-9.03534029 25.43987501 -6.29285854 25.93147809 -3 26 C-3.02356567 24.92516357 -3.02356567 24.92516357 -3.04760742 23.82861328 C-3.10981863 20.59415524 -3.14894649 17.35982281 -3.1875 14.125 C-3.22520508 12.43310547 -3.22520508 12.43310547 -3.26367188 10.70703125 C-3.27333984 9.63066406 -3.28300781 8.55429688 -3.29296875 7.4453125 C-3.3086792 6.45031738 -3.32438965 5.45532227 -3.34057617 4.43017578 C-3.22818604 3.62821777 -3.1157959 2.82625977 -3 2 C-2.01 1.34 -1.02 0.68 0 0 Z " fill="#aeb8de" transform="translate(90,184)"/>
<path d="M0 0 C2.3125 0.0625 2.3125 0.0625 5 1 C6.3726682 2.97321053 7.70427617 4.97543152 9 7 C9.9075 7.495 10.815 7.99 11.75 8.5 C12.4925 8.995 13.235 9.49 14 10 C14.3125 13.1875 14.3125 13.1875 14 16 C13.071875 16.391875 12.14375 16.78375 11.1875 17.1875 C7.86999357 18.72652843 7.86999357 18.72652843 6.4375 21.625 C5 24 5 24 2.3125 24.8125 C1.549375 24.874375 0.78625 24.93625 0 25 C-0.53625 24.0925 -1.0725 23.185 -1.625 22.25 C-3.3783001 19.5569815 -4.36948553 18.7655188 -7.25 16.9375 C-10 15 -10 15 -10.75 12.5 C-9.64511056 8.8170352 -7.18842899 8.00058289 -4 6 C-2.19203897 3.43389334 -2.19203897 3.43389334 -1 1 C-0.67 0.67 -0.34 0.34 0 0 Z " fill="#aeb8de" transform="translate(131,109)"/>
<path d="M0 0 C2.4375 -0.4375 2.4375 -0.4375 5 0 C6.97610386 2.04424538 8 3.1176825 8 6 C8.804375 6.226875 9.60875 6.45375 10.4375 6.6875 C11.283125 7.120625 12.12875 7.55375 13 8 C13.8125 10.625 13.8125 10.625 14 13 C10.25 16 10.25 16 8 16 C7.690625 16.804375 7.38125 17.60875 7.0625 18.4375 C6 21 6 21 5 22 C2.5625 22.25 2.5625 22.25 0 22 C-2 19 -2 19 -2 16 C-3.4540625 15.62875 -3.4540625 15.62875 -4.9375 15.25 C-8 14 -8 14 -9.125 12.125 C-9 10 -9 10 -7.25 7.9375 C-6.5075 7.298125 -5.765 6.65875 -5 6 C-2.94472011 4.02376933 -1.6155609 2.42334134 0 0 Z " fill="#aeb8de" transform="translate(365,55)"/>
<path d="M0 0 C2.375 1.625 2.375 1.625 4 4 C4.5625 7 4.5625 7 4 10 C1.9375 12.4375 1.9375 12.4375 -1 14 C-4.83750808 14 -7.03539965 13.81388154 -10 11.3125 C-11.38906225 8.10029355 -11.05521374 6.3063364 -10 3 C-7.02991864 -0.3000904 -4.31091137 -0.62867458 0 0 Z " fill="#aeb8de" transform="translate(98,108)"/>
<path d="M0 0 C2.4375 1.625 2.4375 1.625 4 4 C4.0625 7.0625 4.0625 7.0625 3 10 C0.8125 12 0.8125 12 -2 13 C-5.25 12.3125 -5.25 12.3125 -8 11 C-9.39935013 8.20129973 -9.25265405 6.09501208 -9 3 C-6.79244709 -0.67925486 -4.01747809 -0.57392544 0 0 Z " fill="#aeb8de" transform="translate(334,60)"/>
<path d="M0 0 C2.31 0 4.62 0 7 0 C7.02689216 1.47906892 7.04634621 2.95827483 7.0625 4.4375 C7.07410156 5.26121094 7.08570313 6.08492187 7.09765625 6.93359375 C7 9 7 9 6 10 C4.33382885 10.04063832 2.66611905 10.042721 1 10 C-0.60725635 6.78548731 -0.05748185 3.56387464 0 0 Z " fill="#aeb8de" transform="translate(238,16)"/>
</svg>
