<svg width="248" height="291" viewBox="0 0 248 291" fill="none" xmlns="http://www.w3.org/2000/svg">
<path fill-rule="evenodd" clip-rule="evenodd" d="M124.47 118.9L131 123.42C131 123.42 137.63 115.84 137.7 114.59C137.88 111.35 137.21 107.59 138.27 104.34C140.02 98.99 145.27 100.26 146.57 103.12C146.57 103.12 138.01 103.05 148.57 103.12C149.044 103.095 149.515 103.21 149.925 103.449C150.335 103.688 150.667 104.041 150.879 104.466C151.091 104.89 151.175 105.367 151.12 105.839C151.065 106.31 150.874 106.756 150.57 107.12C150.46 107.27 153.57 108.29 151.57 111.41C154.09 114.2 150.93 115.89 150.71 116.11C146.9 119.72 142.51 127.6 140.31 131.11C135.53 138.82 122.21 131.46 121.31 130.65C121 130.42 124.47 118.9 124.47 118.9Z" fill="#AEB8DE"/>
<path d="M124.47 118.9L131 123.42C131 123.42 137.63 115.84 137.7 114.59C137.88 111.35 137.21 107.59 138.27 104.34C140.02 98.99 145.27 100.26 146.57 103.12C146.57 103.12 138.01 103.05 148.57 103.12C149.044 103.095 149.515 103.21 149.925 103.449C150.335 103.688 150.667 104.041 150.879 104.466C151.091 104.89 151.175 105.367 151.12 105.839C151.065 106.31 150.874 106.756 150.57 107.12C150.46 107.27 153.57 108.29 151.57 111.41C154.09 114.2 150.93 115.89 150.71 116.11C146.9 119.72 142.51 127.6 140.31 131.11C135.53 138.82 122.21 131.46 121.31 130.65C121 130.42 124.47 118.9 124.47 118.9Z" stroke="#4B65C8" stroke-width="0.57" stroke-miterlimit="22.93" stroke-linecap="round"/>
<path d="M143.79 103.24C140.79 103.6 140 107.79 143.91 107.61C145.44 107.54 147.42 107.38 147.29 107.41C146.81 107.51 140.74 107.83 142.55 110.52C143.69 112.2 148.44 111.52 148.28 111.52C147.261 111.618 146.266 111.892 145.34 112.33C142.53 113.45 143.25 115.82 146 116.06C146.7 116.12 147.71 116.15 148.44 116.15" stroke="#4B65C8" stroke-width="0.57" stroke-miterlimit="22.93" stroke-linecap="round"/>
<path fill-rule="evenodd" clip-rule="evenodd" d="M130.91 101.6H143.78V114.89C143.78 115.641 143.482 116.362 142.952 116.895C142.421 117.427 141.701 117.727 140.95 117.73H133.74C132.989 117.727 132.269 117.427 131.738 116.895C131.208 116.362 130.91 115.641 130.91 114.89V101.6Z" fill="#AEB8DE"/>
<path d="M130.91 101.6H143.78V114.89C143.78 115.641 143.482 116.362 142.952 116.895C142.421 117.427 141.701 117.727 140.95 117.73H133.74C132.989 117.727 132.269 117.427 131.738 116.895C131.208 116.362 130.91 115.641 130.91 114.89V101.6Z" stroke="#4B65C8" stroke-width="0.57" stroke-miterlimit="22.93" stroke-linecap="round"/>
<path d="M134.44 98.66C132.02 92.36 136.57 92.66 136.55 88.87C136.55 86.87 134.81 86.16 134.69 84.35" stroke="#4B65C8" stroke-width="0.57" stroke-miterlimit="22.93" stroke-linecap="round"/>
<path d="M137.26 100C134.75 94.26 137.04 94.74 138.03 91.31" stroke="#4B65C8" stroke-width="0.57" stroke-miterlimit="22.93" stroke-linecap="round"/>
<path fill-rule="evenodd" clip-rule="evenodd" d="M103.76 173.66C103.081 173.665 102.431 173.938 101.952 174.419C101.473 174.9 101.203 175.551 101.2 176.23V220.61C101.241 221.263 101.529 221.875 102.005 222.323C102.482 222.771 103.111 223.02 103.765 223.02C104.419 223.02 105.048 222.771 105.525 222.323C106.001 221.875 106.289 221.263 106.33 220.61V176.23C106.327 175.549 106.056 174.897 105.574 174.416C105.093 173.934 104.441 173.663 103.76 173.66Z" fill="#4B65C8"/>
<path d="M103.76 173.66C103.081 173.665 102.431 173.938 101.952 174.419C101.473 174.9 101.203 175.551 101.2 176.23V220.61C101.241 221.263 101.529 221.875 102.005 222.323C102.482 222.771 103.111 223.02 103.765 223.02C104.419 223.02 105.048 222.771 105.525 222.323C106.001 221.875 106.289 221.263 106.33 220.61V176.23C106.327 175.549 106.056 174.897 105.574 174.416C105.093 173.934 104.441 173.663 103.76 173.66Z" stroke="#4B65C8" stroke-width="0.57" stroke-miterlimit="22.93" stroke-linecap="round"/>
<path d="M119.94 172.92H87.83C84.9139 172.92 82.55 175.284 82.55 178.2C82.55 181.116 84.9139 183.48 87.83 183.48H119.94C122.856 183.48 125.22 181.116 125.22 178.2C125.22 175.284 122.856 172.92 119.94 172.92Z" fill="#4B65C8"/>
<path d="M119.94 172.92H87.83C84.9139 172.92 82.55 175.284 82.55 178.2C82.55 181.116 84.9139 183.48 87.83 183.48H119.94C122.856 183.48 125.22 181.116 125.22 178.2C125.22 175.284 122.856 172.92 119.94 172.92Z" stroke="#4B65C8" stroke-width="0.57" stroke-miterlimit="22.93" stroke-linecap="round"/>
<path fill-rule="evenodd" clip-rule="evenodd" d="M105.29 176.42C104.659 176.67 104.152 177.159 103.881 177.781C103.609 178.403 103.594 179.107 103.84 179.74L120 221.08C120.123 221.393 120.306 221.679 120.539 221.922C120.773 222.164 121.051 222.358 121.36 222.493C121.668 222.627 122 222.7 122.336 222.706C122.672 222.713 123.007 222.653 123.32 222.53C123.633 222.407 123.919 222.224 124.162 221.991C124.404 221.757 124.598 221.479 124.733 221.17C124.867 220.862 124.94 220.53 124.946 220.194C124.953 219.858 124.893 219.523 124.77 219.21L108.64 177.88C108.517 177.563 108.333 177.273 108.098 177.028C107.863 176.783 107.581 176.587 107.27 176.451C106.958 176.315 106.623 176.242 106.283 176.237C105.943 176.232 105.606 176.294 105.29 176.42Z" fill="#4B65C8"/>
<path d="M105.29 176.42C104.659 176.67 104.152 177.159 103.881 177.781C103.609 178.403 103.594 179.107 103.84 179.74L120 221.08C120.123 221.393 120.306 221.679 120.539 221.922C120.773 222.164 121.051 222.358 121.36 222.493C121.668 222.627 122 222.7 122.336 222.706C122.672 222.713 123.007 222.653 123.32 222.53C123.633 222.407 123.919 222.224 124.162 221.991C124.404 221.757 124.598 221.479 124.733 221.17C124.867 220.862 124.94 220.53 124.946 220.194C124.953 219.858 124.893 219.523 124.77 219.21L108.64 177.88C108.517 177.563 108.333 177.273 108.098 177.028C107.863 176.783 107.581 176.587 107.27 176.451C106.958 176.315 106.623 176.242 106.283 176.237C105.943 176.232 105.606 176.294 105.29 176.42Z" stroke="#4B65C8" stroke-width="0.57" stroke-miterlimit="22.93" stroke-linecap="round"/>
<path fill-rule="evenodd" clip-rule="evenodd" d="M101.66 176.42C102.293 176.668 102.802 177.156 103.076 177.779C103.349 178.401 103.365 179.106 103.12 179.74L87 221.08C86.752 221.713 86.2629 222.221 85.6403 222.493C85.0177 222.765 84.3125 222.778 83.68 222.53C83.0475 222.282 82.5393 221.793 82.2674 221.17C81.9955 220.548 81.982 219.843 82.23 219.21L98.37 177.88C98.6159 177.253 99.0992 176.747 99.7151 176.474C100.331 176.201 101.03 176.181 101.66 176.42Z" fill="#4B65C8"/>
<path d="M101.66 176.42C102.293 176.668 102.802 177.156 103.076 177.779C103.349 178.401 103.365 179.106 103.12 179.74L87 221.08C86.752 221.713 86.2629 222.221 85.6403 222.493C85.0177 222.765 84.3125 222.778 83.68 222.53C83.0475 222.282 82.5393 221.793 82.2674 221.17C81.9955 220.548 81.982 219.843 82.23 219.21L98.37 177.88C98.6159 177.253 99.0992 176.747 99.7151 176.474C100.331 176.201 101.03 176.181 101.66 176.42Z" stroke="#4B65C8" stroke-width="0.57" stroke-miterlimit="22.93" stroke-linecap="round"/>
<path fill-rule="evenodd" clip-rule="evenodd" d="M158 206.12H137C136.832 206.125 136.672 206.194 136.553 206.313C136.434 206.432 136.365 206.592 136.36 206.76L135.36 220.92H168.93C169.56 214.99 165.22 213.19 160.1 210.65C158.11 209.18 158 206.12 158 206.12Z" fill="#AEB8DE"/>
<path d="M158 206.12H137C136.832 206.125 136.672 206.194 136.553 206.313C136.434 206.432 136.365 206.592 136.36 206.76L135.36 220.92H168.93C169.56 214.99 165.22 213.19 160.1 210.65C158.11 209.18 158 206.12 158 206.12Z" stroke="#4B65C8" stroke-width="0.57" stroke-linecap="round" stroke-linejoin="round"/>
<path d="M168.94 218.65H134.95C134.597 218.65 134.31 218.937 134.31 219.29V222.32C134.31 222.673 134.597 222.96 134.95 222.96H168.94C169.293 222.96 169.58 222.673 169.58 222.32V219.29C169.58 218.937 169.293 218.65 168.94 218.65Z" fill="#AEB8DE"/>
<path d="M168.94 218.65H134.95C134.597 218.65 134.31 218.937 134.31 219.29V222.32C134.31 222.673 134.597 222.96 134.95 222.96H168.94C169.293 222.96 169.58 222.673 169.58 222.32V219.29C169.58 218.937 169.293 218.65 168.94 218.65Z" stroke="#4B65C8" stroke-width="0.57" stroke-linecap="round" stroke-linejoin="round"/>
<path fill-rule="evenodd" clip-rule="evenodd" d="M157.66 206.42L158.1 208.18C152.54 207.295 146.934 206.727 141.31 206.48L157.66 206.42Z" fill="#4B65C8"/>
<path d="M157.66 206.42L158.1 208.18C152.54 207.295 146.934 206.727 141.31 206.48L157.66 206.42Z" stroke="#4B65C8" stroke-width="0.57" stroke-miterlimit="22.93" stroke-linecap="round"/>
<path fill-rule="evenodd" clip-rule="evenodd" d="M141.05 206.08H120.05C119.883 206.087 119.724 206.157 119.606 206.276C119.487 206.394 119.417 206.553 119.41 206.72L118.41 220.88H152C152.63 214.95 148.29 213.15 143.16 210.61C141.21 209.14 141.05 206.08 141.05 206.08Z" fill="#AEB8DE"/>
<path d="M141.05 206.08H120.05C119.883 206.087 119.724 206.157 119.606 206.276C119.487 206.394 119.417 206.553 119.41 206.72L118.41 220.88H152C152.63 214.95 148.29 213.15 143.16 210.61C141.21 209.14 141.05 206.08 141.05 206.08Z" stroke="#4B65C8" stroke-width="0.57" stroke-linecap="round" stroke-linejoin="round"/>
<path d="M152.04 218.62H118.05C117.697 218.62 117.41 218.907 117.41 219.26V222.29C117.41 222.643 117.697 222.93 118.05 222.93H152.04C152.393 222.93 152.68 222.643 152.68 222.29V219.26C152.68 218.907 152.393 218.62 152.04 218.62Z" fill="#AEB8DE"/>
<path d="M152.04 218.62H118.05C117.697 218.62 117.41 218.907 117.41 219.26V222.29C117.41 222.643 117.697 222.93 118.05 222.93H152.04C152.393 222.93 152.68 222.643 152.68 222.29V219.26C152.68 218.907 152.393 218.62 152.04 218.62Z" stroke="#4B65C8" stroke-width="0.57" stroke-linecap="round" stroke-linejoin="round"/>
<path fill-rule="evenodd" clip-rule="evenodd" d="M141.06 206.38L141.49 208.15C136.076 207.229 130.608 206.658 125.12 206.44L141.06 206.38Z" fill="#4B65C8"/>
<path d="M141.06 206.38L141.49 208.15C136.076 207.229 130.608 206.658 125.12 206.44L141.06 206.38Z" stroke="#4B65C8" stroke-width="0.57" stroke-miterlimit="22.93" stroke-linecap="round"/>
<path fill-rule="evenodd" clip-rule="evenodd" d="M120.22 81.8C120.22 90.35 120.22 90.21 120.22 98.8C120.07 119.91 132.59 120.33 131.14 149.43C130.93 153.68 127.46 153.15 126.81 158.86C122.01 160.03 109.16 155.34 104.36 156.5C99.57 155.34 87.7 164.93 82.91 163.76C81.62 158.12 80.05 154.76 80.09 150.32C80.28 123.32 91.48 116.6 91.46 100.32V81.86C91.43 62.86 120.19 63.51 120.22 81.8Z" fill="#AEB8DE"/>
<path d="M120.22 81.8C120.22 90.35 120.22 90.21 120.22 98.8C120.07 119.91 132.59 120.33 131.14 149.43C130.93 153.68 127.46 153.15 126.81 158.86C122.01 160.03 109.16 155.34 104.36 156.5C99.57 155.34 87.7 164.93 82.91 163.76C81.62 158.12 80.05 154.76 80.09 150.32C80.28 123.32 91.48 116.6 91.46 100.32V81.86C91.43 62.86 120.19 63.51 120.22 81.8Z" stroke="#4B65C8" stroke-width="0.57" stroke-linecap="round" stroke-linejoin="round"/>
<path fill-rule="evenodd" clip-rule="evenodd" d="M137.19 148.77C145.53 149.26 159.73 152.85 159.11 172.47C159.11 191.62 159.19 205.42 159.11 206.41C159.9 206.66 119.36 206.61 119.36 206.61C119.36 206.61 119.65 183.97 119.52 179.56C119.41 175.85 119.23 172.84 113.97 172.86C113.04 172.86 101.33 172.86 100.35 172.92C92.27 173.22 78.15 173.92 78.41 157.92C78.41 155.52 79.16 153.13 80.16 149.48C80.1847 149.237 80.1847 148.993 80.16 148.75H126.64C129.94 148.77 134 148.59 137.19 148.77Z" fill="#AEB8DE"/>
<path d="M137.19 148.77C145.53 149.26 159.73 152.85 159.11 172.47C159.11 191.62 159.19 205.42 159.11 206.41C159.9 206.66 119.36 206.61 119.36 206.61C119.36 206.61 119.65 183.97 119.52 179.56C119.41 175.85 119.23 172.84 113.97 172.86C113.04 172.86 101.33 172.86 100.35 172.92C92.27 173.22 78.15 173.92 78.41 157.92C78.41 155.52 79.16 153.13 80.16 149.48C80.1847 149.237 80.1847 148.993 80.16 148.75H126.64C129.94 148.77 134 148.59 137.19 148.77Z" stroke="#4B65C8" stroke-width="0.57" stroke-linecap="round" stroke-linejoin="round"/>
<path fill-rule="evenodd" clip-rule="evenodd" d="M91.73 103.69H120.23C120.76 103.69 121.269 103.901 121.644 104.276C122.019 104.651 122.23 105.16 122.23 105.69C122.23 106.22 122.019 106.729 121.644 107.104C121.269 107.479 120.76 107.69 120.23 107.69H91.73C91.1996 107.69 90.6909 107.479 90.3158 107.104C89.9407 106.729 89.73 106.22 89.73 105.69C89.73 105.16 89.9407 104.651 90.3158 104.276C90.6909 103.901 91.1996 103.69 91.73 103.69Z" fill="#AEB8DE"/>
<path d="M91.73 103.69H120.23C120.76 103.69 121.269 103.901 121.644 104.276C122.019 104.651 122.23 105.16 122.23 105.69C122.23 106.22 122.019 106.729 121.644 107.104C121.269 107.479 120.76 107.69 120.23 107.69H91.73C91.1996 107.69 90.6909 107.479 90.3158 107.104C89.9407 106.729 89.73 106.22 89.73 105.69C89.73 105.16 89.9407 104.651 90.3158 104.276C90.6909 103.901 91.1996 103.69 91.73 103.69Z" stroke="#4B65C8" stroke-width="0.57" stroke-miterlimit="22.93" stroke-linecap="round"/>
<path d="M91.46 80.14H135.3" stroke="#4B65C8" stroke-width="0.57" stroke-miterlimit="22.93" stroke-linecap="round"/>
<path fill-rule="evenodd" clip-rule="evenodd" d="M120.86 107.71L121.3 109.48C115.742 108.582 110.135 108.015 104.51 107.78L120.86 107.71Z" fill="#4B65C8"/>
<path d="M120.86 107.71L121.3 109.48C115.742 108.582 110.135 108.015 104.51 107.78L120.86 107.71Z" stroke="#4B65C8" stroke-width="0.57" stroke-miterlimit="22.93" stroke-linecap="round"/>
<path fill-rule="evenodd" clip-rule="evenodd" d="M119.77 80.07L120.21 81.84C114.652 80.9417 109.045 80.374 103.42 80.14L119.77 80.07Z" fill="#4B65C8"/>
<path d="M119.77 80.07L120.21 81.84C114.652 80.9417 109.045 80.374 103.42 80.14L119.77 80.07Z" stroke="#4B65C8" stroke-width="0.57" stroke-miterlimit="22.93" stroke-linecap="round"/>
<path d="M142.48 206.74V170.36C142.48 168.64 143.26 150.01 126.64 148.73" stroke="#4B65C8" stroke-width="0.57" stroke-miterlimit="22.93" stroke-linecap="round"/>
<path fill-rule="evenodd" clip-rule="evenodd" d="M119.26 92.69C118.931 92.69 118.608 92.5925 118.334 92.4099C118.06 92.2272 117.846 91.9676 117.719 91.6636C117.592 91.3596 117.558 91.0249 117.621 90.7015C117.684 90.3781 117.841 90.0805 118.072 89.8462C118.304 89.6119 118.599 89.4512 118.922 89.3846C119.245 89.3179 119.58 89.3481 119.885 89.4714C120.191 89.5948 120.453 89.8057 120.639 90.0777C120.825 90.3497 120.926 90.6706 120.93 91C120.931 91.2206 120.889 91.4393 120.806 91.6437C120.723 91.848 120.6 92.0339 120.445 92.1909C120.29 92.3478 120.105 92.4727 119.902 92.5583C119.699 92.6439 119.481 92.6887 119.26 92.69Z" fill="#FEFEFE"/>
<path d="M119.26 92.69C118.931 92.69 118.608 92.5925 118.334 92.4099C118.06 92.2272 117.846 91.9676 117.719 91.6636C117.592 91.3596 117.558 91.0249 117.621 90.7015C117.684 90.3781 117.841 90.0805 118.072 89.8462C118.304 89.6119 118.599 89.4512 118.922 89.3846C119.245 89.3179 119.58 89.3481 119.885 89.4714C120.191 89.5948 120.453 89.8057 120.639 90.0777C120.825 90.3497 120.926 90.6706 120.93 91C120.931 91.2206 120.889 91.4393 120.806 91.6437C120.723 91.848 120.6 92.0339 120.445 92.1909C120.29 92.3478 120.105 92.4727 119.902 92.5583C119.699 92.6439 119.481 92.6887 119.26 92.69Z" stroke="#4B65C8" stroke-width="0.57" stroke-linecap="round" stroke-linejoin="round"/>
<path fill-rule="evenodd" clip-rule="evenodd" d="M105.23 89.35C105.561 89.35 105.885 89.4485 106.16 89.6329C106.435 89.8173 106.649 90.0793 106.775 90.3856C106.9 90.6919 106.932 91.0287 106.866 91.3532C106.8 91.6777 106.639 91.9752 106.404 92.208C106.168 92.4407 105.869 92.5981 105.543 92.6603C105.218 92.7225 104.882 92.6865 104.577 92.5571C104.272 92.4276 104.013 92.2104 103.832 91.9332C103.651 91.6559 103.556 91.3311 103.56 91C103.565 90.5606 103.744 90.1409 104.056 89.832C104.369 89.5232 104.791 89.35 105.23 89.35Z" fill="#FEFEFE"/>
<path d="M105.23 89.35C105.561 89.35 105.885 89.4485 106.16 89.6329C106.435 89.8173 106.649 90.0793 106.775 90.3856C106.9 90.6919 106.932 91.0287 106.866 91.3532C106.8 91.6777 106.639 91.9752 106.404 92.208C106.168 92.4407 105.869 92.5981 105.543 92.6603C105.218 92.7225 104.882 92.6865 104.577 92.5571C104.272 92.4276 104.013 92.2104 103.832 91.9332C103.651 91.6559 103.556 91.3311 103.56 91C103.565 90.5606 103.744 90.1409 104.056 89.832C104.369 89.5232 104.791 89.35 105.23 89.35Z" stroke="#4B65C8" stroke-width="0.57" stroke-linecap="round" stroke-linejoin="round"/>
<path d="M118.63 84.54C119.289 84.4436 119.961 84.5481 120.56 84.84" stroke="#4B65C8" stroke-width="0.57" stroke-miterlimit="22.93" stroke-linecap="round"/>
<path d="M105.94 84.54C105.281 84.4417 104.608 84.5463 104.01 84.84" stroke="#4B65C8" stroke-width="0.57" stroke-miterlimit="22.93" stroke-linecap="round"/>
<path fill-rule="evenodd" clip-rule="evenodd" d="M119.76 91.71C119.81 91.71 119.859 91.73 119.894 91.7656C119.93 91.8013 119.95 91.8496 119.95 91.9C119.948 91.9496 119.927 91.9965 119.892 92.0317C119.857 92.0668 119.81 92.0876 119.76 92.09C119.71 92.09 119.661 92.07 119.626 92.0343C119.59 91.9987 119.57 91.9504 119.57 91.9C119.569 91.8747 119.572 91.8493 119.582 91.8256C119.591 91.8019 119.604 91.7804 119.622 91.7624C119.64 91.7445 119.662 91.7305 119.686 91.7215C119.709 91.7125 119.735 91.7085 119.76 91.71Z" fill="#4B65C8"/>
<path d="M119.76 91.71C119.81 91.71 119.859 91.73 119.894 91.7656C119.93 91.8013 119.95 91.8496 119.95 91.9C119.948 91.9496 119.927 91.9965 119.892 92.0317C119.857 92.0668 119.81 92.0876 119.76 92.09C119.71 92.09 119.661 92.07 119.626 92.0343C119.59 91.9987 119.57 91.9504 119.57 91.9C119.569 91.8747 119.572 91.8493 119.582 91.8256C119.591 91.8019 119.604 91.7804 119.622 91.7624C119.64 91.7445 119.662 91.7305 119.686 91.7215C119.709 91.7125 119.735 91.7085 119.76 91.71Z" stroke="#4B65C8" stroke-width="0.57" stroke-linecap="round" stroke-linejoin="round"/>
<path fill-rule="evenodd" clip-rule="evenodd" d="M105.84 91.9C105.79 91.8976 105.743 91.8768 105.708 91.8417C105.673 91.8065 105.652 91.7596 105.65 91.71C105.65 91.6586 105.67 91.6092 105.705 91.572C105.74 91.5348 105.789 91.5126 105.84 91.51C105.866 91.51 105.891 91.5152 105.915 91.5254C105.939 91.5355 105.96 91.5504 105.978 91.5691C105.996 91.5879 106.01 91.61 106.019 91.6342C106.027 91.6584 106.031 91.6842 106.03 91.71C106.03 91.7604 106.01 91.8087 105.974 91.8444C105.939 91.88 105.89 91.9 105.84 91.9Z" fill="#4B65C8"/>
<path d="M105.84 91.9C105.79 91.8976 105.743 91.8768 105.708 91.8417C105.673 91.8065 105.652 91.7596 105.65 91.71C105.65 91.6586 105.67 91.6092 105.705 91.572C105.74 91.5348 105.789 91.5126 105.84 91.51C105.866 91.51 105.891 91.5152 105.915 91.5254C105.939 91.5355 105.96 91.5504 105.978 91.5691C105.996 91.5879 106.01 91.61 106.019 91.6342C106.027 91.6584 106.031 91.6842 106.03 91.71C106.03 91.7604 106.01 91.8087 105.974 91.8444C105.939 91.88 105.89 91.9 105.84 91.9Z" stroke="#4B65C8" stroke-width="0.57" stroke-linecap="round" stroke-linejoin="round"/>
<path d="M107.87 95.88C108.26 96.82 109.35 96.94 110.25 96.94" stroke="#4B65C8" stroke-width="0.57" stroke-miterlimit="22.93" stroke-linecap="round"/>
<path fill-rule="evenodd" clip-rule="evenodd" d="M115.58 110.21L131.1 115.71L123.52 142.71L106.52 136.71L113.69 111.18C113.74 110.986 113.831 110.804 113.956 110.647C114.081 110.49 114.238 110.362 114.417 110.27C114.596 110.178 114.792 110.126 114.992 110.115C115.193 110.105 115.393 110.137 115.58 110.21Z" fill="#4B65C8"/>
<path d="M115.58 110.21L131.1 115.71L123.52 142.71L106.52 136.71L113.69 111.18C113.74 110.986 113.831 110.804 113.956 110.647C114.081 110.49 114.238 110.362 114.417 110.27C114.596 110.178 114.792 110.126 114.992 110.115C115.193 110.105 115.393 110.137 115.58 110.21Z" stroke="#4B65C8" stroke-width="0.57" stroke-miterlimit="22.93" stroke-linecap="round"/>
<path fill-rule="evenodd" clip-rule="evenodd" d="M137 110.64L131.28 115.64L123.7 142.64L130.56 136.64L137.39 112.33C137.84 110.84 137.66 110.09 137 110.64Z" fill="#4B65C8"/>
<path d="M137 110.64L131.28 115.64L123.7 142.64L130.56 136.64L137.39 112.33C137.84 110.84 137.66 110.09 137 110.64Z" stroke="#4B65C8" stroke-width="0.57" stroke-miterlimit="22.93" stroke-linecap="round"/>
<path fill-rule="evenodd" clip-rule="evenodd" d="M96.75 114.2C100.26 119.14 100.91 124.11 105.5 128.39C106.36 129.19 112.4 130.96 116.97 132.27C118.91 132.82 122.52 131.66 123.42 131.94C124.32 132.22 125.9 133.04 124.61 135.37C124.36 135.83 127.74 135.5 128.38 136.18C130.17 138.11 127.38 139.55 127.38 139.55C127.53 141.07 126.49 141.65 124.94 142.25C124.821 142.617 124.597 142.942 124.298 143.185C123.998 143.428 123.634 143.579 123.25 143.62C119.222 144.02 115.156 143.682 111.25 142.62C109.84 142.23 108.35 141.76 106.93 141.27C99.66 138.76 93.93 137.27 90.41 129.96C90.1 129.32 88.56 126.22 87.41 124.05C84.41 118.25 94.13 109.96 96.72 114.15" fill="#AEB8DE"/>
<path d="M96.75 114.2C100.26 119.14 100.91 124.11 105.5 128.39C106.36 129.19 112.4 130.96 116.97 132.27C118.91 132.82 122.52 131.66 123.42 131.94C124.32 132.22 125.9 133.04 124.61 135.37C124.36 135.83 127.74 135.5 128.38 136.18C130.17 138.11 127.38 139.55 127.38 139.55C127.53 141.07 126.49 141.65 124.94 142.25C124.821 142.617 124.597 142.942 124.298 143.185C123.998 143.428 123.634 143.579 123.25 143.62C119.222 144.02 115.156 143.682 111.25 142.62C109.84 142.23 108.35 141.76 106.93 141.27C99.66 138.76 93.93 137.27 90.41 129.96C90.1 129.32 88.56 126.22 87.41 124.05" stroke="#4B65C8" stroke-width="0.57" stroke-miterlimit="22.93" stroke-linecap="round"/>
<path d="M123 139C124.508 139.424 126.078 139.583 127.64 139.47" stroke="#4B65C8" stroke-width="0.57" stroke-miterlimit="22.93" stroke-linecap="round"/>
<path d="M120.5 141.69C122.004 142.114 123.571 142.273 125.13 142.16" stroke="#4B65C8" stroke-width="0.57" stroke-miterlimit="22.93" stroke-linecap="round"/>
<path fill-rule="evenodd" clip-rule="evenodd" d="M117 144.84C109.11 144.02 99.87 139.56 96 136.84C95.44 136.44 93.81 134.96 95.93 136.58C98.05 138.2 101.93 139.58 104.93 140.66C110.28 142.646 115.933 143.695 121.64 143.76C121.64 143.76 120.41 145.19 117 144.84Z" fill="#4B65C8"/>
<path d="M117 144.84C109.11 144.02 99.87 139.56 96 136.84C95.44 136.44 93.81 134.96 95.93 136.58C98.05 138.2 101.93 139.58 104.93 140.66C110.28 142.646 115.933 143.695 121.64 143.76C121.64 143.76 120.41 145.19 117 144.84Z" stroke="#4B65C8" stroke-width="0.57" stroke-miterlimit="22.93" stroke-linecap="round"/>
<path d="M124.96 135.62L121.01 135.13" stroke="#4B65C8" stroke-width="0.57" stroke-miterlimit="22.93" stroke-linecap="round"/>
</svg>
