<?xml version="1.0" standalone="no"?>
<!DOCTYPE svg PUBLIC "-//W3C//DTD SVG 20010904//EN"
 "http://www.w3.org/TR/2001/REC-SVG-20010904/DTD/svg10.dtd">
<svg version="1.0" xmlns="http://www.w3.org/2000/svg"
 width="500.000000pt" height="500.000000pt" viewBox="0 0 500.000000 500.000000"
 preserveAspectRatio="xMidYMid meet">

<g transform="translate(0.000000,500.000000) scale(0.100000,-0.100000)"
fill="#4C66C8" stroke="none">
<path d="M2976 3478 c-27 -27 -48 -58 -55 -83 -6 -22 -11 -116 -11 -210 -1
-237 -8 -255 -142 -332 -90 -52 -185 -148 -238 -242 -59 -104 -59 -104 -60
-31 -1 116 -60 240 -165 346 -70 70 -118 89 -218 82 -143 -9 -294 -128 -382
-303 l-34 -68 -5 34 c-3 19 -10 77 -16 129 -19 168 -71 461 -90 512 -41 109
-123 173 -221 173 -125 0 -258 -111 -420 -352 l-50 -74 -60 80 c-33 43 -97
114 -142 158 -147 141 -268 178 -369 114 -106 -67 -127 -127 -183 -516 -95
-658 -104 -820 -51 -928 36 -74 81 -109 150 -115 47 -4 56 -1 96 29 56 43 114
155 134 259 8 41 20 161 26 265 13 232 44 395 70 369 5 -5 32 -52 60 -104 66
-120 120 -193 170 -226 105 -69 205 -32 371 139 86 87 108 105 113 91 4 -10
11 -144 17 -298 11 -317 19 -388 50 -452 24 -51 51 -72 106 -85 93 -21 166 39
208 174 14 43 25 88 26 100 0 21 1 21 12 3 29 -48 96 -111 135 -128 118 -53
295 -2 412 116 25 25 48 46 51 46 3 0 9 -39 12 -87 9 -137 46 -218 102 -223
75 -8 96 20 104 139 l6 85 27 -42 c40 -59 120 -119 186 -138 72 -21 140 -13
216 26 33 17 60 29 61 28 1 -2 12 -20 25 -42 30 -49 79 -72 117 -54 40 19 63
67 69 144 8 98 11 102 40 58 42 -63 95 -114 149 -142 41 -22 64 -27 126 -27
66 0 83 4 137 33 34 17 64 32 66 32 2 0 9 -13 16 -29 18 -45 56 -75 94 -75 41
0 64 18 84 64 l14 34 15 -29 c26 -51 44 -65 83 -65 42 0 83 27 105 70 8 16 21
72 29 125 8 54 17 99 19 101 2 2 18 -18 35 -45 64 -98 156 -143 297 -145 236
-3 406 130 408 318 1 145 -74 165 -218 55 -87 -66 -163 -109 -193 -109 -33 0
-52 32 -52 89 0 70 34 106 106 115 112 14 209 37 265 62 121 55 177 157 145
267 -78 268 -437 308 -667 73 -26 -26 -64 -81 -85 -122 l-38 -75 -21 94 c-22
100 -40 137 -80 163 -28 18 -56 13 -102 -23 l-33 -24 0 80 0 79 39 -15 c37
-15 42 -14 77 4 42 21 74 73 74 117 0 16 -10 50 -21 74 -32 66 -99 99 -148 73
-16 -9 -19 -2 -28 59 -12 78 -50 167 -84 198 -55 52 -148 9 -193 -88 -18 -40
-21 -65 -22 -230 -1 -247 -1 -247 -147 -332 -97 -57 -169 -131 -230 -238 l-32
-55 -6 145 c-4 80 -7 244 -8 365 -1 240 -13 317 -57 392 -29 50 -50 63 -98 63
-28 0 -45 -9 -80 -42z m-756 -788 c29 -29 25 -68 -16 -148 -37 -76 -102 -142
-139 -142 -39 0 -65 28 -65 70 0 71 100 222 154 233 40 8 46 7 66 -13z m663
-72 c3 -29 11 -90 17 -136 13 -99 2 -152 -40 -194 -34 -34 -60 -36 -87 -5 -50
55 -53 145 -7 246 24 54 88 141 103 141 5 0 11 -24 14 -52z m735 -50 c18 -150
16 -217 -8 -255 -42 -70 -100 -69 -132 4 -26 59 -21 138 16 214 24 52 90 139
105 139 3 0 12 -46 19 -102z m1130 80 c-5 -34 -63 -68 -115 -68 -39 0 -43 2
-34 18 24 45 66 68 124 71 24 1 28 -3 25 -21z"/>
</g>
</svg>
