<?xml version="1.0" standalone="no"?>
<!DOCTYPE svg PUBLIC "-//W3C//DTD SVG 20010904//EN"
 "http://www.w3.org/TR/2001/REC-SVG-20010904/DTD/svg10.dtd">
<svg version="1.0" xmlns="http://www.w3.org/2000/svg"
 width="500.000000pt" height="500.000000pt" viewBox="0 0 500.000000 500.000000"
 preserveAspectRatio="xMidYMid meet">

<g transform="translate(0.000000,500.000000) scale(0.100000,-0.100000)"
fill="#4C66C8" stroke="none">
<path d="M2795 3330 c-50 -19 -60 -45 -66 -174 -3 -66 -9 -129 -13 -138 -5
-10 -34 -34 -66 -53 -52 -32 -105 -90 -157 -171 -10 -16 -12 -13 -12 27 -1 60
-40 137 -96 188 -39 35 -51 41 -90 41 -25 0 -61 -6 -79 -14 -49 -20 -113 -82
-146 -140 l-29 -49 -5 34 c-3 19 -13 86 -21 149 -23 164 -38 212 -80 249 -40
35 -96 42 -143 17 -35 -19 -121 -108 -162 -170 l-33 -49 -21 29 c-44 62 -131
144 -173 165 -84 41 -160 2 -188 -96 -15 -52 -43 -245 -70 -477 -21 -178 -5
-249 65 -278 34 -14 63 -7 92 23 43 46 58 101 73 271 8 91 20 176 26 190 12
25 13 24 55 -48 46 -79 103 -136 135 -136 40 0 94 34 156 98 l62 64 5 -44 c3
-23 8 -106 11 -183 6 -156 16 -203 44 -229 23 -21 85 -24 108 -4 23 19 52 87
53 123 l0 30 26 -33 c68 -86 184 -83 287 8 l34 30 6 -61 c8 -70 20 -97 50
-108 36 -14 57 13 57 71 l0 50 44 -45 c66 -69 131 -79 215 -35 20 11 25 11 29
-1 6 -18 39 -51 52 -51 23 0 48 41 55 90 l7 52 24 -35 c50 -74 140 -100 214
-64 42 22 47 21 55 -3 8 -25 38 -42 60 -34 8 4 22 18 30 33 l13 26 10 -26 c14
-36 47 -43 78 -16 19 17 27 38 36 90 l11 67 23 -33 c29 -43 61 -64 120 -77 92
-21 216 27 249 96 18 38 20 115 3 132 -20 20 -40 14 -117 -39 -90 -61 -115
-62 -119 -3 -4 53 9 63 95 75 132 18 204 80 189 162 -9 50 -57 102 -112 123
-109 41 -245 -23 -310 -148 l-17 -33 -12 50 c-21 94 -47 114 -100 79 l-25 -16
0 46 c0 45 0 45 30 39 24 -4 37 0 55 17 31 29 32 68 4 105 -18 22 -28 26 -55
23 -32 -4 -34 -2 -34 27 -1 39 -33 111 -57 123 -22 12 -52 1 -78 -28 -17 -19
-21 -41 -26 -144 -3 -66 -9 -129 -13 -138 -5 -10 -34 -34 -66 -53 -37 -23 -75
-58 -103 -95 l-45 -59 -4 47 c-3 26 -6 121 -7 212 -2 135 -5 171 -20 206 -21
48 -46 65 -76 54z m-445 -460 c16 -29 -3 -81 -45 -125 -36 -39 -43 -41 -70
-21 -17 12 -18 17 -6 57 14 46 69 109 95 109 8 0 20 -9 26 -20z m374 -111 c6
-57 5 -68 -15 -92 -30 -39 -61 -33 -73 14 -12 51 -1 100 36 150 31 43 32 44
38 18 4 -14 10 -54 14 -90z m400 0 c6 -57 5 -68 -15 -92 -30 -39 -61 -33 -73
14 -12 51 -1 100 36 150 31 43 32 44 38 18 4 -14 10 -54 14 -90z m615 76 c-17
-18 -79 -32 -79 -18 0 14 32 40 55 45 29 6 42 -9 24 -27z"/>
</g>
</svg>
