<?xml version="1.0" encoding="UTF-8"?>
<svg xmlns="http://www.w3.org/2000/svg" xmlns:xlink="http://www.w3.org/1999/xlink" width="667px" height="580px" viewBox="0 0 667 580" version="1.1">
<g id="surface1">
<path style=" stroke:none;fill-rule:nonzero;fill:rgb(29.803922%,40%,78.431373%);fill-opacity:1;" d="M 372.851562 193.71875 C 366.183594 195.925781 364.847656 198.941406 364.046875 213.902344 C 363.648438 221.558594 362.847656 228.867188 362.3125 229.910156 C 361.648438 231.070312 357.777344 233.855469 353.511719 236.058594 C 346.574219 239.773438 339.503906 246.5 332.566406 255.894531 C 331.230469 257.753906 330.964844 257.402344 330.964844 252.765625 C 330.832031 245.804688 325.628906 236.871094 318.160156 230.957031 C 312.957031 226.894531 311.355469 226.199219 306.152344 226.199219 C 302.816406 226.199219 298.015625 226.894531 295.613281 227.824219 C 289.078125 230.144531 280.539062 237.335938 276.136719 244.0625 L 272.269531 249.746094 L 271.601562 245.804688 C 271.203125 243.601562 269.867188 235.828125 268.800781 228.519531 C 265.734375 209.496094 263.730469 203.929688 258.128906 199.636719 C 252.792969 195.574219 245.324219 194.765625 239.054688 197.664062 C 234.382812 199.867188 222.910156 210.191406 217.441406 217.382812 L 213.039062 223.066406 L 210.238281 219.703125 C 204.367188 212.511719 192.761719 203 187.160156 200.5625 C 175.953125 195.808594 165.816406 200.332031 162.082031 211.699219 C 160.078125 217.730469 156.34375 240.121094 152.742188 267.03125 C 149.941406 287.679688 152.074219 295.914062 161.414062 299.28125 C 165.949219 300.902344 169.816406 300.09375 173.6875 296.613281 C 179.421875 291.277344 181.425781 284.894531 183.425781 265.175781 C 184.492188 254.621094 186.09375 244.761719 186.894531 243.136719 C 188.496094 240.234375 188.628906 240.351562 194.230469 248.703125 C 200.367188 257.867188 207.96875 264.480469 212.238281 264.480469 C 217.574219 264.480469 224.777344 260.535156 233.050781 253.113281 L 241.320312 245.6875 L 241.988281 250.792969 C 242.386719 253.460938 243.054688 263.089844 243.453125 272.019531 C 244.253906 290.117188 245.589844 295.566406 249.324219 298.585938 C 252.394531 301.019531 260.664062 301.367188 263.730469 299.046875 C 266.800781 296.84375 270.667969 288.957031 270.800781 284.78125 L 270.800781 281.300781 L 274.269531 285.128906 C 283.339844 295.105469 298.816406 294.757812 312.554688 284.199219 L 317.09375 280.71875 L 317.890625 287.796875 C 318.960938 295.914062 320.558594 299.046875 324.5625 300.324219 C 329.363281 301.949219 332.164062 298.816406 332.164062 292.089844 L 332.164062 286.289062 L 338.035156 291.507812 C 346.839844 299.511719 355.511719 300.671875 366.714844 295.566406 C 369.382812 294.292969 370.050781 294.292969 370.585938 295.683594 C 371.386719 297.773438 375.789062 301.601562 377.523438 301.601562 C 380.589844 301.601562 383.925781 296.84375 384.859375 291.160156 L 385.792969 285.128906 L 388.996094 289.1875 C 395.664062 297.773438 407.671875 300.789062 417.542969 296.613281 C 423.144531 294.058594 423.8125 294.175781 424.878906 296.960938 C 425.945312 299.859375 429.949219 301.832031 432.882812 300.902344 C 433.949219 300.441406 435.816406 298.816406 436.886719 297.074219 L 438.621094 294.058594 L 439.953125 297.074219 C 441.820312 301.253906 446.222656 302.0625 450.359375 298.933594 C 452.894531 296.960938 453.960938 294.523438 455.160156 288.492188 L 456.628906 280.71875 L 459.695312 284.546875 C 463.566406 289.535156 467.832031 291.972656 475.703125 293.480469 C 487.976562 295.914062 504.519531 290.347656 508.921875 282.34375 C 511.320312 277.9375 511.589844 269.003906 509.320312 267.03125 C 506.652344 264.710938 503.984375 265.40625 493.714844 271.554688 C 481.707031 278.632812 478.371094 278.746094 477.839844 271.902344 C 477.304688 265.757812 479.039062 264.597656 490.511719 263.203125 C 508.121094 261.117188 517.726562 253.925781 515.722656 244.410156 C 514.523438 238.613281 508.121094 232.578125 500.785156 230.144531 C 486.242188 225.386719 468.101562 232.8125 459.429688 247.3125 L 457.160156 251.140625 L 455.5625 245.339844 C 452.757812 234.4375 449.292969 232.117188 442.222656 236.175781 L 438.886719 238.03125 L 438.886719 232.695312 C 438.886719 227.476562 438.886719 227.476562 442.886719 228.171875 C 446.089844 228.636719 447.824219 228.171875 450.226562 226.199219 C 454.359375 222.835938 454.492188 218.3125 450.757812 214.019531 C 448.355469 211.46875 447.023438 211.003906 443.421875 211.351562 C 439.152344 211.816406 438.886719 211.585938 438.886719 208.21875 C 438.753906 203.695312 434.484375 195.34375 431.28125 193.953125 C 428.347656 192.558594 424.34375 193.835938 420.878906 197.199219 C 418.609375 199.402344 418.074219 201.957031 417.410156 213.902344 C 417.007812 221.558594 416.207031 228.867188 415.675781 229.910156 C 415.007812 231.070312 411.140625 233.855469 406.871094 236.058594 C 401.933594 238.726562 396.863281 242.789062 393.128906 247.078125 L 387.125 253.925781 L 386.59375 248.472656 C 386.191406 245.457031 385.792969 234.4375 385.660156 223.878906 C 385.394531 208.21875 384.992188 204.042969 382.992188 199.984375 C 380.191406 194.414062 376.855469 192.445312 372.851562 193.71875 Z M 313.488281 247.078125 C 315.625 250.445312 313.089844 256.476562 307.488281 261.578125 C 302.683594 266.105469 301.75 266.335938 298.148438 264.015625 C 295.882812 262.625 295.746094 262.042969 297.347656 257.402344 C 299.214844 252.066406 306.554688 244.761719 310.023438 244.761719 C 311.089844 244.761719 312.691406 245.804688 313.488281 247.078125 Z M 363.382812 259.957031 C 364.183594 266.566406 364.046875 267.84375 361.378906 270.628906 C 357.378906 275.152344 353.242188 274.457031 351.640625 269.003906 C 350.042969 263.089844 351.507812 257.402344 356.445312 251.605469 C 360.582031 246.617188 360.714844 246.5 361.515625 249.515625 C 362.046875 251.140625 362.847656 255.78125 363.382812 259.957031 Z M 416.742188 259.957031 C 417.542969 266.566406 417.410156 267.84375 414.742188 270.628906 C 410.738281 275.152344 406.601562 274.457031 405.003906 269.003906 C 403.402344 263.089844 404.867188 257.402344 409.804688 251.605469 C 413.941406 246.617188 414.074219 246.5 414.875 249.515625 C 415.40625 251.140625 416.207031 255.78125 416.742188 259.957031 Z M 498.78125 251.140625 C 496.515625 253.226562 488.242188 254.851562 488.242188 253.226562 C 488.242188 251.605469 492.511719 248.589844 495.582031 248.007812 C 499.449219 247.3125 501.183594 249.050781 498.78125 251.140625 Z M 498.78125 251.140625 "/>
</g>
</svg>
