<?xml version="1.0" encoding="UTF-8"?>
<svg version="1.1" xmlns="http://www.w3.org/2000/svg" width="400" height="205">
<path d="M0 0 C55.77 0 111.54 0 169 0 C169 27.39 169 54.78 169 83 C113.23 83 57.46 83 0 83 C0 55.61 0 28.22 0 0 Z " fill="#aeb8de" transform="translate(121,20)"/>
<path d="M0 0 C53.46 0 106.92 0 162 0 C162 9.57 162 19.14 162 29 C157.38 29.66 152.76 30.32 148 31 C147.05598958 28.265625 146.11197917 25.53125 145.16796875 22.796875 C144.05867958 20.14051698 142.8306717 18.20310061 141 16 C136.22506453 17.28958111 133.39675202 19.05329925 129.8125 22.4375 C128.55373047 23.61119141 128.55373047 23.61119141 127.26953125 24.80859375 C125.94475211 26.08776947 124.64393376 27.39455989 123.41015625 28.76171875 C122 30 122 30 118.625 30.375 C114.79947092 29.97925561 113.18232922 29.00989214 110 27 C107.12863207 26.73289601 105.57940917 26.71029542 103 28 C98.02868864 28.14439494 94.24653416 27.43915225 90.25 24.4375 C84.95436637 20.76883815 79.1896514 21.26467588 73 22 C65.90812862 24.40617065 61.98293812 29.96456418 57.75 35.875 C53.71725059 40.83787283 53.71725059 40.83787283 50.83984375 41.48828125 C48.6875 41.1875 48.6875 41.1875 46.4609375 40.61328125 C43.51253681 39.87852108 40.84796696 39.85626255 37.8125 39.875 C36.79929688 39.88015625 35.78609375 39.8853125 34.7421875 39.890625 C31.84817483 39.94498737 31.84817483 39.94498737 28.4375 40.625 C26 41 26 41 23 39 C18.7891422 38.39844889 16.20148768 39.28048762 12.5 41.125 C8.4205063 43.0993924 8.4205063 43.0993924 4.5625 42.1875 C3.716875 41.795625 2.87125 41.40375 2 41 C1.01 41.495 1.01 41.495 0 42 C0 28.14 0 14.28 0 0 Z " fill="#4b65c8" transform="translate(125,24)"/>
<path d="M0 0 C13.2 0 26.4 0 40 0 C40 41.91 40 83.82 40 127 C26.8 127 13.6 127 0 127 C0 85.09 0 43.18 0 0 Z M3 2 C3 11.9 3 21.8 3 32 C6.63 32 10.26 32 14 32 C14 31.01 14 30.02 14 29 C14.99 29 15.98 29 17 29 C16.67 28.01 16.34 27.02 16 26 C15.34 26 14.68 26 14 26 C15.13524124 22.15764502 16.1258669 18.8741331 19 16 C20.32 16 21.64 16 23 16 C23.33 17.32 23.66 18.64 24 20 C24.66 20 25.32 20 26 20 C26.1875 22.375 26.1875 22.375 26 25 C25.01 25.66 24.02 26.32 23 27 C23 27.66 23 28.32 23 29 C23.99 29 24.98 29 26 29 C26 29.99 26 30.98 26 32 C29.96 32 33.92 32 38 32 C38 22.1 38 12.2 38 2 C26.45 2 14.9 2 3 2 Z " fill="#ffffff" transform="translate(341,61)"/>
<path d="M0 0 C19.8 0 39.6 0 60 0 C60 19.8 60 39.6 60 60 C40.2 60 20.4 60 0 60 C0 40.2 0 20.4 0 0 Z " fill="#aeb8de" transform="translate(30,32)"/>
<path d="M0 0 C55.77 0 111.54 0 169 0 C169 27.39 169 54.78 169 83 C113.23 83 57.46 83 0 83 C0 55.61 0 28.22 0 0 Z M4 4 C4 29.08 4 54.16 4 80 C57.46 80 110.92 80 166 80 C166 54.92 166 29.84 166 4 C112.54 4 59.08 4 4 4 Z " fill="#8b9cd4" transform="translate(121,20)"/>
<path d="M0 0 C19.8 0 39.6 0 60 0 C60 19.8 60 39.6 60 60 C40.2 60 20.4 60 0 60 C0 40.2 0 20.4 0 0 Z M4 4 C4 20.83 4 37.66 4 55 C20.83 55 37.66 55 55 55 C55 38.17 55 21.34 55 4 C38.17 4 21.34 4 4 4 Z " fill="#4760ca" transform="translate(30,32)"/>
<path d="M0 0 C1.64899529 0.7293633 3.29817718 1.46164527 4.91015625 2.26953125 C8.80304453 3.63022304 12.9217238 3.58720611 17.01171875 3.7890625 C19.51498823 3.96576388 21.59047936 4.3849114 24 5 C26.95226116 4.95315397 26.95226116 4.95315397 29.90234375 4.83984375 C32 5 32 5 34.05632019 5.99581909 C38.14234865 7.38969072 41.90886811 7.26285906 46.1965332 7.22705078 C47.11409897 7.22734283 48.03166473 7.22763489 48.97703552 7.22793579 C52.00171453 7.22654547 55.02614542 7.21099816 58.05078125 7.1953125 C60.15113694 7.19158132 62.25149437 7.18873484 64.35185242 7.18673706 C69.8740013 7.17910892 75.39604462 7.15946739 80.91815186 7.1373291 C86.55544609 7.11685307 92.19275741 7.10773158 97.83007812 7.09765625 C108.88676508 7.07622079 119.94337375 7.04209466 131 7 C131 8.65 131 10.3 131 12 C77.54 12 24.08 12 -31 12 C-31 11.01 -31 10.02 -31 9 C-30.33355469 8.93683594 -29.66710937 8.87367187 -28.98046875 8.80859375 C-23.17293414 8.03696328 -19.20285262 6.7551797 -14.375 3.375 C-9.44051335 0.00099203 -5.9136005 -1.28507088 0 0 Z " fill="#4b65c8" transform="translate(156,88)"/>
<path d="M0 0 C18.15 0 36.3 0 55 0 C55 18.15 55 36.3 55 55 C36.85 55 18.7 55 0 55 C0 36.85 0 18.7 0 0 Z M2 2 C2 18.83 2 35.66 2 53 C18.83 53 35.66 53 53 53 C53 36.17 53 19.34 53 2 C36.17 2 19.34 2 2 2 Z " fill="#aeb8de" transform="translate(32,34)"/>
<path d="M0 0 C6 0 6 0 7.8125 1.5 C11.21202507 3.83110291 15.00046301 3.71822671 19 3 C19.61359375 2.50113281 20.2271875 2.00226563 20.859375 1.48828125 C23.86941061 -0.60446249 26.13122093 -0.29606337 29.75 -0.1875 C31.8125 -0.125625 33.875 -0.06375 36 0 C36 4.29 36 8.58 36 13 C24.12 13 12.24 13 0 13 C0 8.71 0 4.42 0 0 Z " fill="#4b65c8" transform="translate(42,67)"/>
<path d="M0 0 C1.9375 0.3125 1.9375 0.3125 4 1 C4.33 1.99 4.66 2.98 5 4 C5.53625 4.474375 6.0725 4.94875 6.625 5.4375 C8 7 8 7 7.875 9 C6.90943569 11.20700414 5.80627247 12.42932829 4 14 C4.99 14 5.98 14 7 14 C7 15.32 7 16.64 7 18 C3.37 18 -0.26 18 -4 18 C-4.33 16.68 -4.66 15.36 -5 14 C-4.01 14 -3.02 14 -2 14 C-2.495 13.608125 -2.99 13.21625 -3.5 12.8125 C-5 11 -5 11 -5.5 8.6875 C-4.76627436 4.7437247 -2.71384214 2.9173803 0 0 Z " fill="#4b65c8" transform="translate(360,76)"/>
<path d="M0 0 C6.86892178 -0.7230444 6.86892178 -0.7230444 10.08984375 1.3359375 C11.80497879 2.83010422 13.43160073 4.35318077 15 6 C14 9 14 9 11 11 C5.09810318 11.6300298 -0.50305396 11.37705775 -6 9 C-5.6875 7.0625 -5.6875 7.0625 -5 5 C-4.01 4.67 -3.02 4.34 -2 4 C-0.79117904 1.99983534 -0.79117904 1.99983534 0 0 Z " fill="#8b9cd4" transform="translate(52,53)"/>
<path d="M0 0 C2.97 0 5.94 0 9 0 C9 4.29 9 8.58 9 13 C6.03 13 3.06 13 0 13 C0 8.71 0 4.42 0 0 Z " fill="#aeb8de" transform="translate(295,55)"/>
<path d="M0 0 C2.97 0 5.94 0 9 0 C9 4.29 9 8.58 9 13 C6.03 13 3.06 13 0 13 C0 8.71 0 4.42 0 0 Z " fill="#aeb8de" transform="translate(16,55)"/>
<path d="M0 0 C4.65174041 0.00839664 6.87528369 1.99134498 10.125 5.125 C10.5375 5.558125 10.95 5.99125 11.375 6.4375 C11.045 7.4275 10.715 8.4175 10.375 9.4375 C8.395 9.7675 6.415 10.0975 4.375 10.4375 C4.045 8.7875 3.715 7.1375 3.375 5.4375 C1.065 5.4375 -1.245 5.4375 -3.625 5.4375 C-4.1875 3.5 -4.1875 3.5 -4.625 1.4375 C-3.625 0.4375 -3.625 0.4375 0 0 Z " fill="#4760ca" transform="translate(55.625,52.5625)"/>
<path d="M0 0 C0 1.65 0 3.3 0 5 C-2.31 5 -4.62 5 -7 5 C-7 3.35 -7 1.7 -7 0 C-4.3333581 -1.33332095 -2.83319697 -0.67102033 0 0 Z " fill="#aeb8de" transform="translate(60,58)"/>
<path d="M0 0 C2.64 0 5.28 0 8 0 C8 1.32 8 2.64 8 4 C5.36 4 2.72 4 0 4 C0 2.68 0 1.36 0 0 Z " fill="#aeb8de" transform="translate(370,97)"/>
<path d="M0 0 C1.9375 0.75 1.9375 0.75 4 2 C4.75 4.125 4.75 4.125 5 6 C2.36 5.67 -0.28 5.34 -3 5 C-1.125 1.125 -1.125 1.125 0 0 Z " fill="#aeb8de" transform="translate(263,45)"/>
</svg>
